<svg width="1512" height="982" viewBox="0 0 1512 982" fill="none" xmlns="http://www.w3.org/2000/svg">
<g clip-path="url(#clip0_314_549)">
<rect width="1512" height="982" fill="white"/>
<rect width="1512" height="982" fill="#5CE1E6"/>
<g opacity="0.345889">
<path fill-rule="evenodd" clip-rule="evenodd" d="M1485.27 381.352C1471.81 152.352 749.399 -289.641 615.287 -72.737C481.174 144.166 610.107 551.239 891.157 655.478C1172.21 759.72 1498.74 610.352 1485.27 381.352Z" fill="#F2F2F2"/>
<path fill-rule="evenodd" clip-rule="evenodd" d="M1038.76 530.146C1050.83 335.602 1697.93 -39.8892 1818.06 144.38C1938.19 328.647 1907.79 716.234 1656.03 804.789C1404.28 893.347 1026.7 724.69 1038.76 530.146Z" fill="#DDE3E9"/>
</g>
<g opacity="0.345889">
<path d="M615.712 -95.4741C649.068 -149.422 719.07 -162.508 805.825 -148.002C892.542 -133.502 995.78 -91.4605 1095.28 -35.4707C1194.77 20.5166 1290.49 90.431 1362.17 160.646C1398.01 195.754 1427.83 230.927 1449.1 264.464C1470.38 298.006 1483.1 329.875 1484.77 358.381C1491.49 472.602 1413.42 567.04 1298.45 619.926C1183.49 672.809 1031.73 684.083 891.331 632.009C750.981 579.955 648.572 452.265 598.007 310.452C547.438 168.63 548.761 12.8067 615.712 -95.4741Z" fill="#F2F2F2" stroke="black"/>
<path d="M1039.26 507.177C1040.76 482.984 1052.14 455.925 1071.2 427.435C1090.26 398.951 1116.96 369.073 1149.06 339.25C1213.27 279.604 1299 220.211 1388.12 172.649C1477.24 125.085 1569.72 89.3707 1647.39 77.0535C1725.11 64.7294 1787.79 75.8552 1817.64 121.653C1877.62 213.656 1900.05 356.483 1876.01 487.386C1851.98 618.286 1781.51 737.121 1655.87 781.317C1530.14 825.543 1372.95 805.55 1248.67 750.174C1186.54 722.488 1132.67 685.972 1095.09 644.251C1057.52 602.53 1036.26 555.638 1039.26 507.177Z" fill="#DDE3E9" stroke="black"/>
</g>
<g opacity="0.345889">
<path fill-rule="evenodd" clip-rule="evenodd" d="M447.273 736.352C433.809 507.352 -288.601 65.3594 -422.713 282.263C-556.826 499.166 -427.893 906.239 -146.843 1010.48C134.208 1114.72 460.736 965.352 447.273 736.352Z" fill="#F2F2F2"/>
<path fill-rule="evenodd" clip-rule="evenodd" d="M0.764835 885.146C12.8253 690.602 659.93 315.111 780.062 499.38C900.195 683.647 869.787 1071.23 618.034 1159.79C366.281 1248.35 -11.2957 1079.69 0.764835 885.146Z" fill="#DDE3E9"/>
</g>
<g opacity="0.345889">
<path d="M-422.288 253.526C-388.932 199.578 -318.93 186.492 -232.175 200.998C-145.458 215.498 -42.22 257.54 57.2776 313.529C156.771 369.517 252.489 439.431 324.167 509.646C360.007 544.754 389.826 579.927 411.104 613.464C432.385 647.006 445.098 678.875 446.774 707.381C453.489 821.602 375.419 916.04 260.449 968.926C145.486 1021.81 -6.2709 1033.08 -146.669 981.009C-287.019 928.955 -389.428 801.265 -439.993 659.452C-490.562 517.63 -489.239 361.807 -422.288 253.526Z" fill="#F2F2F2" stroke="black"/>
<path d="M1.26388 856.177C2.7637 831.984 14.1419 804.925 33.2012 776.435C52.2562 747.951 78.9635 718.073 111.065 688.25C175.267 628.604 261.003 569.211 350.122 521.649C439.245 474.085 531.717 438.371 609.39 426.054C687.107 413.729 749.786 424.855 779.643 470.653C839.624 562.656 862.05 705.483 838.013 836.386C813.977 967.286 743.513 1086.12 617.868 1130.32C492.144 1174.54 334.946 1154.55 210.673 1099.17C148.541 1071.49 94.671 1034.97 57.0938 993.251C19.5165 951.53 -1.74041 904.638 1.26388 856.177Z" fill="#DDE3E9" stroke="black"/>
</g>
</g>
<defs>
<clipPath id="clip0_314_549">
<rect width="1512" height="982" fill="white"/>
</clipPath>
</defs>
</svg>
