<svg width="157" height="285" viewBox="0 0 157 285" fill="none" xmlns="http://www.w3.org/2000/svg">
<g filter="url(#filter0_d_749_104)">
<path d="M42.3989 102.507H39.2937V105.613H42.3989V102.507Z" fill="#0A0A0A"/>
<path d="M45.5038 102.507H42.3987V105.613H45.5038V102.507Z" fill="#0A0A0A"/>
<path d="M48.6122 102.507H45.5071V105.613H48.6122V102.507Z" fill="#0A0A0A"/>
<path d="M51.7172 102.507H48.6121V105.613H51.7172V102.507Z" fill="#0A0A0A"/>
<path d="M54.8224 102.507H51.7173V105.613H54.8224V102.507Z" fill="#0A0A0A"/>
<path d="M57.9308 102.507H54.8257V105.613H57.9308V102.507Z" fill="#0A0A0A"/>
<path d="M61.0358 102.507H57.9307V105.613H61.0358V102.507Z" fill="#0A0A0A"/>
<path d="M67.2494 102.507H64.1443V105.613H67.2494V102.507Z" fill="#0A0A0A"/>
<path d="M70.3544 102.507H67.2493V105.613H70.3544V102.507Z" fill="#0A0A0A"/>
<path d="M73.4596 102.507H70.3545V105.613H73.4596V102.507Z" fill="#0A0A0A"/>
<path d="M76.568 102.507H73.4629V105.613H76.568V102.507Z" fill="#0A0A0A"/>
<path d="M98.3102 102.507H95.2051V105.613H98.3102V102.507Z" fill="#0A0A0A"/>
<path d="M101.418 102.507H98.3132V105.613H101.418V102.507Z" fill="#0A0A0A"/>
<path d="M104.524 102.507H101.418V105.613H104.524V102.507Z" fill="#0A0A0A"/>
<path d="M107.629 102.507H104.523V105.613H107.629V102.507Z" fill="#0A0A0A"/>
<path d="M110.737 102.507H107.632V105.613H110.737V102.507Z" fill="#0A0A0A"/>
<path d="M113.842 102.507H110.737V105.613H113.842V102.507Z" fill="#0A0A0A"/>
<path d="M116.947 102.507H113.842V105.613H116.947V102.507Z" fill="#0A0A0A"/>
<path d="M42.3989 105.613H39.2937V108.719H42.3989V105.613Z" fill="#0A0A0A"/>
<path d="M61.0358 105.613H57.9307V108.719H61.0358V105.613Z" fill="#0A0A0A"/>
<path d="M76.568 105.613H73.4629V108.719H76.568V105.613Z" fill="#0A0A0A"/>
<path d="M79.673 105.613H76.5679V108.719H79.673V105.613Z" fill="#0A0A0A"/>
<path d="M82.7782 105.613H79.6731V108.719H82.7782V105.613Z" fill="#0A0A0A"/>
<path d="M85.8866 105.613H82.7815V108.719H85.8866V105.613Z" fill="#0A0A0A"/>
<path d="M92.0968 105.613H88.9917V108.719H92.0968V105.613Z" fill="#0A0A0A"/>
<path d="M98.3102 105.613H95.2051V108.719H98.3102V105.613Z" fill="#0A0A0A"/>
<path d="M116.947 105.613H113.842V108.719H116.947V105.613Z" fill="#0A0A0A"/>
<path d="M42.3989 108.719H39.2937V111.825H42.3989V108.719Z" fill="#0A0A0A"/>
<path d="M48.6122 108.719H45.5071V111.825H48.6122V108.719Z" fill="#0A0A0A"/>
<path d="M51.7172 108.719H48.6121V111.825H51.7172V108.719Z" fill="#0A0A0A"/>
<path d="M54.8224 108.719H51.7173V111.825H54.8224V108.719Z" fill="#0A0A0A"/>
<path d="M61.0358 108.719H57.9307V111.825H61.0358V108.719Z" fill="#0A0A0A"/>
<path d="M70.3544 108.719H67.2493V111.825H70.3544V108.719Z" fill="#0A0A0A"/>
<path d="M76.568 108.719H73.4629V111.825H76.568V108.719Z" fill="#0A0A0A"/>
<path d="M82.7782 108.719H79.6731V111.825H82.7782V108.719Z" fill="#0A0A0A"/>
<path d="M88.9916 108.719H85.8865V111.825H88.9916V108.719Z" fill="#0A0A0A"/>
<path d="M92.0968 108.719H88.9917V111.825H92.0968V108.719Z" fill="#0A0A0A"/>
<path d="M98.3102 108.719H95.2051V111.825H98.3102V108.719Z" fill="#0A0A0A"/>
<path d="M104.524 108.719H101.418V111.825H104.524V108.719Z" fill="#0A0A0A"/>
<path d="M107.629 108.719H104.523V111.825H107.629V108.719Z" fill="#0A0A0A"/>
<path d="M110.737 108.719H107.632V111.825H110.737V108.719Z" fill="#0A0A0A"/>
<path d="M116.947 108.719H113.842V111.825H116.947V108.719Z" fill="#0A0A0A"/>
<path d="M42.3989 111.824H39.2937V114.93H42.3989V111.824Z" fill="#0A0A0A"/>
<path d="M48.6122 111.824H45.5071V114.93H48.6122V111.824Z" fill="#0A0A0A"/>
<path d="M51.7172 111.824H48.6121V114.93H51.7172V111.824Z" fill="#0A0A0A"/>
<path d="M54.8224 111.824H51.7173V114.93H54.8224V111.824Z" fill="#0A0A0A"/>
<path d="M61.0358 111.824H57.9307V114.93H61.0358V111.824Z" fill="#0A0A0A"/>
<path d="M73.4596 111.824H70.3545V114.93H73.4596V111.824Z" fill="#0A0A0A"/>
<path d="M76.568 111.824H73.4629V114.93H76.568V111.824Z" fill="#0A0A0A"/>
<path d="M82.7782 111.824H79.6731V114.93H82.7782V111.824Z" fill="#0A0A0A"/>
<path d="M88.9916 111.824H85.8865V114.93H88.9916V111.824Z" fill="#0A0A0A"/>
<path d="M92.0968 111.824H88.9917V114.93H92.0968V111.824Z" fill="#0A0A0A"/>
<path d="M98.3102 111.824H95.2051V114.93H98.3102V111.824Z" fill="#0A0A0A"/>
<path d="M104.524 111.824H101.418V114.93H104.524V111.824Z" fill="#0A0A0A"/>
<path d="M107.629 111.824H104.523V114.93H107.629V111.824Z" fill="#0A0A0A"/>
<path d="M110.737 111.824H107.632V114.93H110.737V111.824Z" fill="#0A0A0A"/>
<path d="M116.947 111.824H113.842V114.93H116.947V111.824Z" fill="#0A0A0A"/>
<path d="M42.3989 114.93H39.2937V118.036H42.3989V114.93Z" fill="#0A0A0A"/>
<path d="M48.6122 114.93H45.5071V118.036H48.6122V114.93Z" fill="#0A0A0A"/>
<path d="M51.7172 114.93H48.6121V118.036H51.7172V114.93Z" fill="#0A0A0A"/>
<path d="M54.8224 114.93H51.7173V118.036H54.8224V114.93Z" fill="#0A0A0A"/>
<path d="M61.0358 114.93H57.9307V118.036H61.0358V114.93Z" fill="#0A0A0A"/>
<path d="M73.4596 114.93H70.3545V118.036H73.4596V114.93Z" fill="#0A0A0A"/>
<path d="M76.568 114.93H73.4629V118.036H76.568V114.93Z" fill="#0A0A0A"/>
<path d="M79.673 114.93H76.5679V118.036H79.673V114.93Z" fill="#0A0A0A"/>
<path d="M85.8866 114.93H82.7815V118.036H85.8866V114.93Z" fill="#0A0A0A"/>
<path d="M92.0968 114.93H88.9917V118.036H92.0968V114.93Z" fill="#0A0A0A"/>
<path d="M98.3102 114.93H95.2051V118.036H98.3102V114.93Z" fill="#0A0A0A"/>
<path d="M104.524 114.93H101.418V118.036H104.524V114.93Z" fill="#0A0A0A"/>
<path d="M107.629 114.93H104.523V118.036H107.629V114.93Z" fill="#0A0A0A"/>
<path d="M110.737 114.93H107.632V118.036H110.737V114.93Z" fill="#0A0A0A"/>
<path d="M116.947 114.93H113.842V118.036H116.947V114.93Z" fill="#0A0A0A"/>
<path d="M42.3989 118.039H39.2937V121.145H42.3989V118.039Z" fill="#0A0A0A"/>
<path d="M61.0358 118.039H57.9307V121.145H61.0358V118.039Z" fill="#0A0A0A"/>
<path d="M70.3544 118.039H67.2493V121.145H70.3544V118.039Z" fill="#0A0A0A"/>
<path d="M76.568 118.039H73.4629V121.145H76.568V118.039Z" fill="#0A0A0A"/>
<path d="M85.8866 118.039H82.7815V121.145H85.8866V118.039Z" fill="#0A0A0A"/>
<path d="M92.0968 118.039H88.9917V121.145H92.0968V118.039Z" fill="#0A0A0A"/>
<path d="M98.3102 118.039H95.2051V121.145H98.3102V118.039Z" fill="#0A0A0A"/>
<path d="M116.947 118.039H113.842V121.145H116.947V118.039Z" fill="#0A0A0A"/>
<path d="M42.3989 121.145H39.2937V124.251H42.3989V121.145Z" fill="#0A0A0A"/>
<path d="M45.5038 121.145H42.3987V124.251H45.5038V121.145Z" fill="#0A0A0A"/>
<path d="M48.6122 121.145H45.5071V124.251H48.6122V121.145Z" fill="#0A0A0A"/>
<path d="M51.7172 121.145H48.6121V124.251H51.7172V121.145Z" fill="#0A0A0A"/>
<path d="M54.8224 121.145H51.7173V124.251H54.8224V121.145Z" fill="#0A0A0A"/>
<path d="M57.9308 121.145H54.8257V124.251H57.9308V121.145Z" fill="#0A0A0A"/>
<path d="M61.0358 121.145H57.9307V124.251H61.0358V121.145Z" fill="#0A0A0A"/>
<path d="M67.2494 121.145H64.1443V124.251H67.2494V121.145Z" fill="#0A0A0A"/>
<path d="M73.4596 121.145H70.3545V124.251H73.4596V121.145Z" fill="#0A0A0A"/>
<path d="M79.673 121.145H76.5679V124.251H79.673V121.145Z" fill="#0A0A0A"/>
<path d="M85.8866 121.145H82.7815V124.251H85.8866V121.145Z" fill="#0A0A0A"/>
<path d="M92.0968 121.145H88.9917V124.251H92.0968V121.145Z" fill="#0A0A0A"/>
<path d="M98.3102 121.145H95.2051V124.251H98.3102V121.145Z" fill="#0A0A0A"/>
<path d="M101.418 121.145H98.3132V124.251H101.418V121.145Z" fill="#0A0A0A"/>
<path d="M104.524 121.145H101.418V124.251H104.524V121.145Z" fill="#0A0A0A"/>
<path d="M107.629 121.145H104.523V124.251H107.629V121.145Z" fill="#0A0A0A"/>
<path d="M110.737 121.145H107.632V124.251H110.737V121.145Z" fill="#0A0A0A"/>
<path d="M113.842 121.145H110.737V124.251H113.842V121.145Z" fill="#0A0A0A"/>
<path d="M116.947 121.145H113.842V124.251H116.947V121.145Z" fill="#0A0A0A"/>
<path d="M67.2494 124.251H64.1443V127.357H67.2494V124.251Z" fill="#0A0A0A"/>
<path d="M70.3544 124.251H67.2493V127.357H70.3544V124.251Z" fill="#0A0A0A"/>
<path d="M79.673 124.251H76.5679V127.357H79.673V124.251Z" fill="#0A0A0A"/>
<path d="M82.7782 124.251H79.6731V127.357H82.7782V124.251Z" fill="#0A0A0A"/>
<path d="M42.3989 127.357H39.2937V130.463H42.3989V127.357Z" fill="#0A0A0A"/>
<path d="M45.5038 127.357H42.3987V130.463H45.5038V127.357Z" fill="#0A0A0A"/>
<path d="M51.7172 127.357H48.6121V130.463H51.7172V127.357Z" fill="#0A0A0A"/>
<path d="M54.8224 127.357H51.7173V130.463H54.8224V127.357Z" fill="#0A0A0A"/>
<path d="M61.0358 127.357H57.9307V130.463H61.0358V127.357Z" fill="#0A0A0A"/>
<path d="M70.3544 127.357H67.2493V130.463H70.3544V127.357Z" fill="#0A0A0A"/>
<path d="M79.673 127.357H76.5679V130.463H79.673V127.357Z" fill="#0A0A0A"/>
<path d="M85.8866 127.357H82.7815V130.463H85.8866V127.357Z" fill="#0A0A0A"/>
<path d="M88.9916 127.357H85.8865V130.463H88.9916V127.357Z" fill="#0A0A0A"/>
<path d="M98.3102 127.357H95.2051V130.463H98.3102V127.357Z" fill="#0A0A0A"/>
<path d="M116.947 127.357H113.842V130.463H116.947V127.357Z" fill="#0A0A0A"/>
<path d="M42.3989 130.463H39.2937V133.569H42.3989V130.463Z" fill="#0A0A0A"/>
<path d="M45.5038 130.463H42.3987V133.569H45.5038V130.463Z" fill="#0A0A0A"/>
<path d="M48.6122 130.463H45.5071V133.569H48.6122V130.463Z" fill="#0A0A0A"/>
<path d="M54.8224 130.463H51.7173V133.569H54.8224V130.463Z" fill="#0A0A0A"/>
<path d="M57.9308 130.463H54.8257V133.569H57.9308V130.463Z" fill="#0A0A0A"/>
<path d="M64.141 130.463H61.0359V133.569H64.141V130.463Z" fill="#0A0A0A"/>
<path d="M73.4596 130.463H70.3545V133.569H73.4596V130.463Z" fill="#0A0A0A"/>
<path d="M82.7782 130.463H79.6731V133.569H82.7782V130.463Z" fill="#0A0A0A"/>
<path d="M85.8866 130.463H82.7815V133.569H85.8866V130.463Z" fill="#0A0A0A"/>
<path d="M88.9916 130.463H85.8865V133.569H88.9916V130.463Z" fill="#0A0A0A"/>
<path d="M95.205 130.463H92.0999V133.569H95.205V130.463Z" fill="#0A0A0A"/>
<path d="M101.418 130.463H98.3132V133.569H101.418V130.463Z" fill="#0A0A0A"/>
<path d="M104.524 130.463H101.418V133.569H104.524V130.463Z" fill="#0A0A0A"/>
<path d="M107.629 130.463H104.523V133.569H107.629V130.463Z" fill="#0A0A0A"/>
<path d="M110.737 130.463H107.632V133.569H110.737V130.463Z" fill="#0A0A0A"/>
<path d="M113.842 130.463H110.737V133.569H113.842V130.463Z" fill="#0A0A0A"/>
<path d="M42.3989 133.569H39.2937V136.675H42.3989V133.569Z" fill="#0A0A0A"/>
<path d="M48.6122 133.569H45.5071V136.675H48.6122V133.569Z" fill="#0A0A0A"/>
<path d="M54.8224 133.569H51.7173V136.675H54.8224V133.569Z" fill="#0A0A0A"/>
<path d="M61.0358 133.569H57.9307V136.675H61.0358V133.569Z" fill="#0A0A0A"/>
<path d="M64.141 133.569H61.0359V136.675H64.141V133.569Z" fill="#0A0A0A"/>
<path d="M67.2494 133.569H64.1443V136.675H67.2494V133.569Z" fill="#0A0A0A"/>
<path d="M70.3544 133.569H67.2493V136.675H70.3544V133.569Z" fill="#0A0A0A"/>
<path d="M79.673 133.569H76.5679V136.675H79.673V133.569Z" fill="#0A0A0A"/>
<path d="M88.9916 133.569H85.8865V136.675H88.9916V133.569Z" fill="#0A0A0A"/>
<path d="M92.0968 133.569H88.9917V136.675H92.0968V133.569Z" fill="#0A0A0A"/>
<path d="M98.3102 133.569H95.2051V136.675H98.3102V133.569Z" fill="#0A0A0A"/>
<path d="M101.418 133.569H98.3132V136.675H101.418V133.569Z" fill="#0A0A0A"/>
<path d="M107.629 133.569H104.523V136.675H107.629V133.569Z" fill="#0A0A0A"/>
<path d="M116.947 133.569H113.842V136.675H116.947V133.569Z" fill="#0A0A0A"/>
<path d="M42.3989 136.675H39.2937V139.781H42.3989V136.675Z" fill="#0A0A0A"/>
<path d="M45.5038 136.675H42.3987V139.781H45.5038V136.675Z" fill="#0A0A0A"/>
<path d="M64.141 136.675H61.0359V139.781H64.141V136.675Z" fill="#0A0A0A"/>
<path d="M67.2494 136.675H64.1443V139.781H67.2494V136.675Z" fill="#0A0A0A"/>
<path d="M88.9916 136.675H85.8865V139.781H88.9916V136.675Z" fill="#0A0A0A"/>
<path d="M101.418 136.675H98.3132V139.781H101.418V136.675Z" fill="#0A0A0A"/>
<path d="M107.629 136.675H104.523V139.781H107.629V136.675Z" fill="#0A0A0A"/>
<path d="M110.737 136.675H107.632V139.781H110.737V136.675Z" fill="#0A0A0A"/>
<path d="M113.842 136.675H110.737V139.781H113.842V136.675Z" fill="#0A0A0A"/>
<path d="M116.947 136.675H113.842V139.781H116.947V136.675Z" fill="#0A0A0A"/>
<path d="M48.6122 139.781H45.5071V142.887H48.6122V139.781Z" fill="#0A0A0A"/>
<path d="M51.7172 139.781H48.6121V142.887H51.7172V139.781Z" fill="#0A0A0A"/>
<path d="M61.0358 139.781H57.9307V142.887H61.0358V139.781Z" fill="#0A0A0A"/>
<path d="M67.2494 139.781H64.1443V142.887H67.2494V139.781Z" fill="#0A0A0A"/>
<path d="M70.3544 139.781H67.2493V142.887H70.3544V139.781Z" fill="#0A0A0A"/>
<path d="M73.4596 139.781H70.3545V142.887H73.4596V139.781Z" fill="#0A0A0A"/>
<path d="M85.8866 139.781H82.7815V142.887H85.8866V139.781Z" fill="#0A0A0A"/>
<path d="M88.9916 139.781H85.8865V142.887H88.9916V139.781Z" fill="#0A0A0A"/>
<path d="M98.3102 139.781H95.2051V142.887H98.3102V139.781Z" fill="#0A0A0A"/>
<path d="M116.947 139.781H113.842V142.887H116.947V139.781Z" fill="#0A0A0A"/>
<path d="M42.3989 142.89H39.2937V145.996H42.3989V142.89Z" fill="#0A0A0A"/>
<path d="M48.6122 142.89H45.5071V145.996H48.6122V142.89Z" fill="#0A0A0A"/>
<path d="M51.7172 142.89H48.6121V145.996H51.7172V142.89Z" fill="#0A0A0A"/>
<path d="M57.9308 142.89H54.8257V145.996H57.9308V142.89Z" fill="#0A0A0A"/>
<path d="M64.141 142.89H61.0359V145.996H64.141V142.89Z" fill="#0A0A0A"/>
<path d="M73.4596 142.89H70.3545V145.996H73.4596V142.89Z" fill="#0A0A0A"/>
<path d="M79.673 142.89H76.5679V145.996H79.673V142.89Z" fill="#0A0A0A"/>
<path d="M85.8866 142.89H82.7815V145.996H85.8866V142.89Z" fill="#0A0A0A"/>
<path d="M88.9916 142.89H85.8865V145.996H88.9916V142.89Z" fill="#0A0A0A"/>
<path d="M92.0968 142.89H88.9917V145.996H92.0968V142.89Z" fill="#0A0A0A"/>
<path d="M95.205 142.89H92.0999V145.996H95.205V142.89Z" fill="#0A0A0A"/>
<path d="M104.524 142.89H101.418V145.996H104.524V142.89Z" fill="#0A0A0A"/>
<path d="M113.842 142.89H110.737V145.996H113.842V142.89Z" fill="#0A0A0A"/>
<path d="M42.3989 145.996H39.2937V149.102H42.3989V145.996Z" fill="#0A0A0A"/>
<path d="M45.5038 145.996H42.3987V149.102H45.5038V145.996Z" fill="#0A0A0A"/>
<path d="M51.7172 145.996H48.6121V149.102H51.7172V145.996Z" fill="#0A0A0A"/>
<path d="M54.8224 145.996H51.7173V149.102H54.8224V145.996Z" fill="#0A0A0A"/>
<path d="M57.9308 145.996H54.8257V149.102H57.9308V145.996Z" fill="#0A0A0A"/>
<path d="M61.0358 145.996H57.9307V149.102H61.0358V145.996Z" fill="#0A0A0A"/>
<path d="M64.141 145.996H61.0359V149.102H64.141V145.996Z" fill="#0A0A0A"/>
<path d="M70.3544 145.996H67.2493V149.102H70.3544V145.996Z" fill="#0A0A0A"/>
<path d="M85.8866 145.996H82.7815V149.102H85.8866V145.996Z" fill="#0A0A0A"/>
<path d="M88.9916 145.996H85.8865V149.102H88.9916V145.996Z" fill="#0A0A0A"/>
<path d="M95.205 145.996H92.0999V149.102H95.205V145.996Z" fill="#0A0A0A"/>
<path d="M98.3102 145.996H95.2051V149.102H98.3102V145.996Z" fill="#0A0A0A"/>
<path d="M104.524 145.996H101.418V149.102H104.524V145.996Z" fill="#0A0A0A"/>
<path d="M107.629 145.996H104.523V149.102H107.629V145.996Z" fill="#0A0A0A"/>
<path d="M110.737 145.996H107.632V149.102H110.737V145.996Z" fill="#0A0A0A"/>
<path d="M113.842 145.996H110.737V149.102H113.842V145.996Z" fill="#0A0A0A"/>
<path d="M116.947 145.996H113.842V149.102H116.947V145.996Z" fill="#0A0A0A"/>
<path d="M42.3989 149.101H39.2937V152.207H42.3989V149.101Z" fill="#0A0A0A"/>
<path d="M57.9308 149.101H54.8257V152.207H57.9308V149.101Z" fill="#0A0A0A"/>
<path d="M64.141 149.101H61.0359V152.207H64.141V149.101Z" fill="#0A0A0A"/>
<path d="M70.3544 149.101H67.2493V152.207H70.3544V149.101Z" fill="#0A0A0A"/>
<path d="M79.673 149.101H76.5679V152.207H79.673V149.101Z" fill="#0A0A0A"/>
<path d="M85.8866 149.101H82.7815V152.207H85.8866V149.101Z" fill="#0A0A0A"/>
<path d="M92.0968 149.101H88.9917V152.207H92.0968V149.101Z" fill="#0A0A0A"/>
<path d="M95.205 149.101H92.0999V152.207H95.205V149.101Z" fill="#0A0A0A"/>
<path d="M101.418 149.101H98.3132V152.207H101.418V149.101Z" fill="#0A0A0A"/>
<path d="M107.629 149.101H104.523V152.207H107.629V149.101Z" fill="#0A0A0A"/>
<path d="M110.737 149.101H107.632V152.207H110.737V149.101Z" fill="#0A0A0A"/>
<path d="M116.947 149.101H113.842V152.207H116.947V149.101Z" fill="#0A0A0A"/>
<path d="M42.3989 152.207H39.2937V155.313H42.3989V152.207Z" fill="#0A0A0A"/>
<path d="M48.6122 152.207H45.5071V155.313H48.6122V152.207Z" fill="#0A0A0A"/>
<path d="M51.7172 152.207H48.6121V155.313H51.7172V152.207Z" fill="#0A0A0A"/>
<path d="M54.8224 152.207H51.7173V155.313H54.8224V152.207Z" fill="#0A0A0A"/>
<path d="M61.0358 152.207H57.9307V155.313H61.0358V152.207Z" fill="#0A0A0A"/>
<path d="M64.141 152.207H61.0359V155.313H64.141V152.207Z" fill="#0A0A0A"/>
<path d="M73.4596 152.207H70.3545V155.313H73.4596V152.207Z" fill="#0A0A0A"/>
<path d="M76.568 152.207H73.4629V155.313H76.568V152.207Z" fill="#0A0A0A"/>
<path d="M79.673 152.207H76.5679V155.313H79.673V152.207Z" fill="#0A0A0A"/>
<path d="M82.7782 152.207H79.6731V155.313H82.7782V152.207Z" fill="#0A0A0A"/>
<path d="M88.9916 152.207H85.8865V155.313H88.9916V152.207Z" fill="#0A0A0A"/>
<path d="M92.0968 152.207H88.9917V155.313H92.0968V152.207Z" fill="#0A0A0A"/>
<path d="M95.205 152.207H92.0999V155.313H95.205V152.207Z" fill="#0A0A0A"/>
<path d="M98.3102 152.207H95.2051V155.313H98.3102V152.207Z" fill="#0A0A0A"/>
<path d="M101.418 152.207H98.3132V155.313H101.418V152.207Z" fill="#0A0A0A"/>
<path d="M104.524 152.207H101.418V155.313H104.524V152.207Z" fill="#0A0A0A"/>
<path d="M110.737 152.207H107.632V155.313H110.737V152.207Z" fill="#0A0A0A"/>
<path d="M113.842 152.207H110.737V155.313H113.842V152.207Z" fill="#0A0A0A"/>
<path d="M67.2494 155.313H64.1443V158.419H67.2494V155.313Z" fill="#0A0A0A"/>
<path d="M70.3544 155.313H67.2493V158.419H70.3544V155.313Z" fill="#0A0A0A"/>
<path d="M76.568 155.313H73.4629V158.419H76.568V155.313Z" fill="#0A0A0A"/>
<path d="M92.0968 155.313H88.9917V158.419H92.0968V155.313Z" fill="#0A0A0A"/>
<path d="M104.524 155.313H101.418V158.419H104.524V155.313Z" fill="#0A0A0A"/>
<path d="M110.737 155.313H107.632V158.419H110.737V155.313Z" fill="#0A0A0A"/>
<path d="M113.842 155.313H110.737V158.419H113.842V155.313Z" fill="#0A0A0A"/>
<path d="M42.3989 158.419H39.2937V161.525H42.3989V158.419Z" fill="#0A0A0A"/>
<path d="M45.5038 158.419H42.3987V161.525H45.5038V158.419Z" fill="#0A0A0A"/>
<path d="M48.6122 158.419H45.5071V161.525H48.6122V158.419Z" fill="#0A0A0A"/>
<path d="M51.7172 158.419H48.6121V161.525H51.7172V158.419Z" fill="#0A0A0A"/>
<path d="M54.8224 158.419H51.7173V161.525H54.8224V158.419Z" fill="#0A0A0A"/>
<path d="M57.9308 158.419H54.8257V161.525H57.9308V158.419Z" fill="#0A0A0A"/>
<path d="M61.0358 158.419H57.9307V161.525H61.0358V158.419Z" fill="#0A0A0A"/>
<path d="M73.4596 158.419H70.3545V161.525H73.4596V158.419Z" fill="#0A0A0A"/>
<path d="M79.673 158.419H76.5679V161.525H79.673V158.419Z" fill="#0A0A0A"/>
<path d="M85.8866 158.419H82.7815V161.525H85.8866V158.419Z" fill="#0A0A0A"/>
<path d="M92.0968 158.419H88.9917V161.525H92.0968V158.419Z" fill="#0A0A0A"/>
<path d="M98.3102 158.419H95.2051V161.525H98.3102V158.419Z" fill="#0A0A0A"/>
<path d="M104.524 158.419H101.418V161.525H104.524V158.419Z" fill="#0A0A0A"/>
<path d="M116.947 158.419H113.842V161.525H116.947V158.419Z" fill="#0A0A0A"/>
<path d="M42.3989 161.525H39.2937V164.631H42.3989V161.525Z" fill="#0A0A0A"/>
<path d="M61.0358 161.525H57.9307V164.631H61.0358V161.525Z" fill="#0A0A0A"/>
<path d="M76.568 161.525H73.4629V164.631H76.568V161.525Z" fill="#0A0A0A"/>
<path d="M82.7782 161.525H79.6731V164.631H82.7782V161.525Z" fill="#0A0A0A"/>
<path d="M88.9916 161.525H85.8865V164.631H88.9916V161.525Z" fill="#0A0A0A"/>
<path d="M92.0968 161.525H88.9917V164.631H92.0968V161.525Z" fill="#0A0A0A"/>
<path d="M104.524 161.525H101.418V164.631H104.524V161.525Z" fill="#0A0A0A"/>
<path d="M116.947 161.525H113.842V164.631H116.947V161.525Z" fill="#0A0A0A"/>
<path d="M42.3989 164.631H39.2937V167.737H42.3989V164.631Z" fill="#0A0A0A"/>
<path d="M48.6122 164.631H45.5071V167.737H48.6122V164.631Z" fill="#0A0A0A"/>
<path d="M51.7172 164.631H48.6121V167.737H51.7172V164.631Z" fill="#0A0A0A"/>
<path d="M54.8224 164.631H51.7173V167.737H54.8224V164.631Z" fill="#0A0A0A"/>
<path d="M61.0358 164.631H57.9307V167.737H61.0358V164.631Z" fill="#0A0A0A"/>
<path d="M67.2494 164.631H64.1443V167.737H67.2494V164.631Z" fill="#0A0A0A"/>
<path d="M73.4596 164.631H70.3545V167.737H73.4596V164.631Z" fill="#0A0A0A"/>
<path d="M76.568 164.631H73.4629V167.737H76.568V164.631Z" fill="#0A0A0A"/>
<path d="M79.673 164.631H76.5679V167.737H79.673V164.631Z" fill="#0A0A0A"/>
<path d="M85.8866 164.631H82.7815V167.737H85.8866V164.631Z" fill="#0A0A0A"/>
<path d="M88.9916 164.631H85.8865V167.737H88.9916V164.631Z" fill="#0A0A0A"/>
<path d="M92.0968 164.631H88.9917V167.737H92.0968V164.631Z" fill="#0A0A0A"/>
<path d="M95.205 164.631H92.0999V167.737H95.205V164.631Z" fill="#0A0A0A"/>
<path d="M98.3102 164.631H95.2051V167.737H98.3102V164.631Z" fill="#0A0A0A"/>
<path d="M101.418 164.631H98.3132V167.737H101.418V164.631Z" fill="#0A0A0A"/>
<path d="M104.524 164.631H101.418V167.737H104.524V164.631Z" fill="#0A0A0A"/>
<path d="M42.3989 167.737H39.2937V170.843H42.3989V167.737Z" fill="#0A0A0A"/>
<path d="M48.6122 167.737H45.5071V170.843H48.6122V167.737Z" fill="#0A0A0A"/>
<path d="M51.7172 167.737H48.6121V170.843H51.7172V167.737Z" fill="#0A0A0A"/>
<path d="M54.8224 167.737H51.7173V170.843H54.8224V167.737Z" fill="#0A0A0A"/>
<path d="M61.0358 167.737H57.9307V170.843H61.0358V167.737Z" fill="#0A0A0A"/>
<path d="M67.2494 167.737H64.1443V170.843H67.2494V167.737Z" fill="#0A0A0A"/>
<path d="M70.3544 167.737H67.2493V170.843H70.3544V167.737Z" fill="#0A0A0A"/>
<path d="M79.673 167.737H76.5679V170.843H79.673V167.737Z" fill="#0A0A0A"/>
<path d="M82.7782 167.737H79.6731V170.843H82.7782V167.737Z" fill="#0A0A0A"/>
<path d="M85.8866 167.737H82.7815V170.843H85.8866V167.737Z" fill="#0A0A0A"/>
<path d="M98.3102 167.737H95.2051V170.843H98.3102V167.737Z" fill="#0A0A0A"/>
<path d="M113.842 167.737H110.737V170.843H113.842V167.737Z" fill="#0A0A0A"/>
<path d="M116.947 167.737H113.842V170.843H116.947V167.737Z" fill="#0A0A0A"/>
<path d="M42.3989 170.846H39.2937V173.952H42.3989V170.846Z" fill="#0A0A0A"/>
<path d="M48.6122 170.846H45.5071V173.952H48.6122V170.846Z" fill="#0A0A0A"/>
<path d="M51.7172 170.846H48.6121V173.952H51.7172V170.846Z" fill="#0A0A0A"/>
<path d="M54.8224 170.846H51.7173V173.952H54.8224V170.846Z" fill="#0A0A0A"/>
<path d="M61.0358 170.846H57.9307V173.952H61.0358V170.846Z" fill="#0A0A0A"/>
<path d="M70.3544 170.846H67.2493V173.952H70.3544V170.846Z" fill="#0A0A0A"/>
<path d="M76.568 170.846H73.4629V173.952H76.568V170.846Z" fill="#0A0A0A"/>
<path d="M82.7782 170.846H79.6731V173.952H82.7782V170.846Z" fill="#0A0A0A"/>
<path d="M88.9916 170.846H85.8865V173.952H88.9916V170.846Z" fill="#0A0A0A"/>
<path d="M95.205 170.846H92.0999V173.952H95.205V170.846Z" fill="#0A0A0A"/>
<path d="M104.524 170.846H101.418V173.952H104.524V170.846Z" fill="#0A0A0A"/>
<path d="M107.629 170.846H104.523V173.952H107.629V170.846Z" fill="#0A0A0A"/>
<path d="M110.737 170.846H107.632V173.952H110.737V170.846Z" fill="#0A0A0A"/>
<path d="M113.842 170.846H110.737V173.952H113.842V170.846Z" fill="#0A0A0A"/>
<path d="M116.947 170.846H113.842V173.952H116.947V170.846Z" fill="#0A0A0A"/>
<path d="M42.3989 173.952H39.2937V177.058H42.3989V173.952Z" fill="#0A0A0A"/>
<path d="M61.0358 173.952H57.9307V177.058H61.0358V173.952Z" fill="#0A0A0A"/>
<path d="M67.2494 173.952H64.1443V177.058H67.2494V173.952Z" fill="#0A0A0A"/>
<path d="M73.4596 173.952H70.3545V177.058H73.4596V173.952Z" fill="#0A0A0A"/>
<path d="M76.568 173.952H73.4629V177.058H76.568V173.952Z" fill="#0A0A0A"/>
<path d="M85.8866 173.952H82.7815V177.058H85.8866V173.952Z" fill="#0A0A0A"/>
<path d="M88.9916 173.952H85.8865V177.058H88.9916V173.952Z" fill="#0A0A0A"/>
<path d="M101.418 173.952H98.3132V177.058H101.418V173.952Z" fill="#0A0A0A"/>
<path d="M104.524 173.952H101.418V177.058H104.524V173.952Z" fill="#0A0A0A"/>
<path d="M110.737 173.952H107.632V177.058H110.737V173.952Z" fill="#0A0A0A"/>
<path d="M113.842 173.952H110.737V177.058H113.842V173.952Z" fill="#0A0A0A"/>
<path d="M116.947 173.952H113.842V177.058H116.947V173.952Z" fill="#0A0A0A"/>
<path d="M42.3989 177.058H39.2937V180.164H42.3989V177.058Z" fill="#0A0A0A"/>
<path d="M45.5038 177.058H42.3987V180.164H45.5038V177.058Z" fill="#0A0A0A"/>
<path d="M48.6122 177.058H45.5071V180.164H48.6122V177.058Z" fill="#0A0A0A"/>
<path d="M51.7172 177.058H48.6121V180.164H51.7172V177.058Z" fill="#0A0A0A"/>
<path d="M54.8224 177.058H51.7173V180.164H54.8224V177.058Z" fill="#0A0A0A"/>
<path d="M57.9308 177.058H54.8257V180.164H57.9308V177.058Z" fill="#0A0A0A"/>
<path d="M61.0358 177.058H57.9307V180.164H61.0358V177.058Z" fill="#0A0A0A"/>
<path d="M67.2494 177.058H64.1443V180.164H67.2494V177.058Z" fill="#0A0A0A"/>
<path d="M70.3544 177.058H67.2493V180.164H70.3544V177.058Z" fill="#0A0A0A"/>
<path d="M73.4596 177.058H70.3545V180.164H73.4596V177.058Z" fill="#0A0A0A"/>
<path d="M79.673 177.058H76.5679V180.164H79.673V177.058Z" fill="#0A0A0A"/>
<path d="M92.0968 177.058H88.9917V180.164H92.0968V177.058Z" fill="#0A0A0A"/>
<path d="M95.205 177.058H92.0999V180.164H95.205V177.058Z" fill="#0A0A0A"/>
<path d="M107.629 177.058H104.523V180.164H107.629V177.058Z" fill="#0A0A0A"/>
<path d="M116.947 177.058H113.842V180.164H116.947V177.058Z" fill="#0A0A0A"/>
<path d="M39.592 61.6376L37.5608 33.0829H45.0217L45.51 47.4774C45.5361 48.1675 45.5426 48.9813 45.5295 49.9188C45.5295 50.8433 45.5035 51.7417 45.4514 52.6141C45.3993 53.4865 45.3277 54.1897 45.2366 54.7235H45.3928C45.5491 54.0204 45.7444 53.2912 45.9788 52.536C46.2131 51.7678 46.454 51.0516 46.7014 50.3876C46.9488 49.7235 47.1637 49.1962 47.3459 48.8055L54.1819 33.0829H62.2678L48.1077 61.6376H39.592ZM71.7092 62.0282C69.8472 62.0282 68.2652 61.6766 66.9631 60.9735C65.6611 60.2704 64.665 59.2678 63.9749 57.9657C63.2978 56.6506 62.9592 55.0881 62.9592 53.2782C62.9592 51.4683 63.2131 49.717 63.7209 48.0243C64.2418 46.3316 65.023 44.8147 66.0647 43.4735C67.1194 42.1324 68.441 41.0712 70.0295 40.2899C71.6181 39.5087 73.4866 39.118 75.635 39.118C78.122 39.118 80.0686 39.6779 81.4749 40.7977C82.8941 41.9175 83.6038 43.4084 83.6038 45.2704C83.6038 46.4943 83.3694 47.6076 82.9006 48.6102C82.4319 49.5998 81.7092 50.4527 80.7327 51.1688C79.7691 51.885 78.5387 52.4384 77.0413 52.829C75.5439 53.2066 73.7665 53.3954 71.7092 53.3954H70.5569C70.5569 53.4475 70.5569 53.4996 70.5569 53.5516C70.5569 53.5907 70.5569 53.6428 70.5569 53.7079C70.5569 54.6975 70.8238 55.4266 71.3577 55.8954C71.8915 56.3641 72.6923 56.5985 73.76 56.5985C74.8798 56.5985 75.941 56.4292 76.9436 56.0907C77.9462 55.7522 79.0204 55.2834 80.1663 54.6844V60.036C78.9814 60.635 77.7574 61.1167 76.4944 61.4813C75.2314 61.8459 73.6363 62.0282 71.7092 62.0282ZM71.3186 48.6688H71.885C73.0178 48.6688 73.9163 48.5191 74.5803 48.2196C75.2444 47.9201 75.7196 47.5425 76.0061 47.0868C76.2926 46.6311 76.4358 46.1753 76.4358 45.7196C76.4358 45.3029 76.3056 44.9514 76.0452 44.6649C75.7847 44.3785 75.3681 44.2352 74.7952 44.2352C74.2092 44.2352 73.6689 44.4631 73.1741 44.9188C72.6793 45.3746 72.2691 45.9475 71.9436 46.6376C71.6181 47.3147 71.4097 47.9917 71.3186 48.6688ZM86.9319 61.6376L91.5999 39.5087H97.635L97.4006 42.5946H97.5569C98.0387 41.7613 98.5725 41.0907 99.1584 40.5829C99.7444 40.0751 100.402 39.704 101.131 39.4696C101.873 39.2352 102.713 39.118 103.651 39.118C105.031 39.118 106.144 39.4045 106.99 39.9774C107.85 40.5503 108.481 41.3121 108.885 42.2626C109.289 43.2131 109.49 44.2613 109.49 45.4071C109.49 46.1363 109.445 46.8915 109.354 47.6727C109.263 48.441 109.145 49.1766 109.002 49.8798L106.522 61.6376H98.9631L101.483 49.5673C101.561 49.2287 101.639 48.799 101.717 48.2782C101.795 47.7443 101.834 47.2496 101.834 46.7938C101.834 46.2339 101.691 45.8173 101.405 45.5438C101.118 45.2574 100.773 45.1141 100.369 45.1141C99.8746 45.1141 99.3993 45.3225 98.9436 45.7391C98.5009 46.1428 98.0907 46.7678 97.7131 47.6141C97.3486 48.4475 97.0295 49.5217 96.7561 50.8368L94.4905 61.6376H86.9319ZM42.3459 116.028C40.9788 116.028 39.8655 115.742 39.0061 115.169C38.1467 114.596 37.5152 113.834 37.1116 112.884C36.7079 111.933 36.5061 110.891 36.5061 109.759C36.5061 109.016 36.5517 108.261 36.6428 107.493C36.734 106.712 36.8512 105.976 36.9944 105.286L39.4749 93.5087H47.0334L44.5139 105.559C44.4358 105.898 44.3512 106.328 44.26 106.849C44.1819 107.369 44.1428 107.858 44.1428 108.313C44.1428 108.873 44.2861 109.296 44.5725 109.583C44.872 109.856 45.2236 109.993 45.6272 109.993C46.0699 109.993 46.5126 109.791 46.9553 109.388C47.4111 108.984 47.8342 108.359 48.2249 107.513C48.6285 106.666 48.967 105.585 49.2405 104.27L51.5061 93.5087H59.0647L54.3967 115.638H48.342L48.5959 112.552H48.4397C47.9579 113.372 47.4241 114.043 46.8381 114.563C46.2522 115.071 45.5881 115.442 44.8459 115.677C44.1168 115.911 43.2834 116.028 42.3459 116.028ZM71.9045 116.028C70.0426 116.028 68.4605 115.677 67.1584 114.974C65.8564 114.27 64.8603 113.268 64.1702 111.966C63.4931 110.651 63.1545 109.088 63.1545 107.278C63.1545 105.468 63.4084 103.717 63.9163 102.024C64.4371 100.332 65.2183 98.8147 66.26 97.4735C67.3147 96.1324 68.6363 95.0712 70.2249 94.2899C71.8134 93.5087 73.6819 93.118 75.8303 93.118C78.3173 93.118 80.2639 93.6779 81.6702 94.7977C83.0894 95.9175 83.7991 97.4084 83.7991 99.2704C83.7991 100.494 83.5647 101.608 83.0959 102.61C82.6272 103.6 81.9045 104.453 80.928 105.169C79.9644 105.885 78.734 106.438 77.2366 106.829C75.7392 107.207 73.9618 107.395 71.9045 107.395H70.7522C70.7522 107.447 70.7522 107.5 70.7522 107.552C70.7522 107.591 70.7522 107.643 70.7522 107.708C70.7522 108.697 71.0191 109.427 71.553 109.895C72.0868 110.364 72.8876 110.599 73.9553 110.599C75.0751 110.599 76.1363 110.429 77.1389 110.091C78.1415 109.752 79.2157 109.283 80.3616 108.684V114.036C79.1767 114.635 77.9527 115.117 76.6897 115.481C75.4267 115.846 73.8316 116.028 71.9045 116.028ZM71.5139 102.669H72.0803C73.2131 102.669 74.1116 102.519 74.7756 102.22C75.4397 101.92 75.915 101.543 76.2014 101.087C76.4879 100.631 76.6311 100.175 76.6311 99.7196C76.6311 99.3029 76.5009 98.9514 76.2405 98.6649C75.9801 98.3785 75.5634 98.2352 74.9905 98.2352C74.4045 98.2352 73.8642 98.4631 73.3694 98.9188C72.8746 99.3746 72.4644 99.9475 72.1389 100.638C71.8134 101.315 71.6051 101.992 71.5139 102.669Z" fill="black"/>
<path d="M47.5413 80.6754C47.5413 81.3525 47.3746 81.9358 47.0413 82.4254C46.7131 82.915 46.2392 83.29 45.6194 83.5504C45.0048 83.8108 44.2704 83.941 43.4163 83.941C42.9996 83.941 42.6012 83.9176 42.2209 83.8707C41.8407 83.8239 41.4814 83.7561 41.1428 83.6676C40.8095 83.5739 40.5048 83.4619 40.2288 83.3317V81.566C40.6923 81.7692 41.2105 81.9541 41.7834 82.1207C42.3564 82.2822 42.9397 82.3629 43.5334 82.3629C44.0178 82.3629 44.4189 82.3004 44.7366 82.1754C45.0595 82.0452 45.2991 81.8629 45.4553 81.6285C45.6116 81.389 45.6897 81.1103 45.6897 80.7926C45.6897 80.4541 45.5986 80.1676 45.4163 79.9332C45.234 79.6989 44.9579 79.4853 44.5881 79.2926C44.2236 79.0947 43.7652 78.8837 43.2131 78.6598C42.8381 78.5087 42.4788 78.3369 42.135 78.1442C41.7965 77.9515 41.4944 77.7249 41.2288 77.4645C40.9631 77.2041 40.7522 76.8968 40.5959 76.5426C40.4449 76.1832 40.3694 75.7614 40.3694 75.277C40.3694 74.6311 40.523 74.0791 40.8303 73.6207C41.1428 73.1624 41.5803 72.8108 42.1428 72.566C42.7105 72.3212 43.372 72.1989 44.1272 72.1989C44.7262 72.1989 45.2887 72.2614 45.8147 72.3864C46.3459 72.5114 46.8668 72.6884 47.3772 72.9176L46.7834 74.4254C46.3147 74.2327 45.859 74.0791 45.4163 73.9645C44.9788 73.8499 44.5308 73.7926 44.0725 73.7926C43.6767 73.7926 43.3407 73.8525 43.0647 73.9723C42.7887 74.0921 42.5777 74.2614 42.4319 74.4801C42.2913 74.6936 42.2209 74.9489 42.2209 75.2457C42.2209 75.5791 42.3017 75.8603 42.4631 76.0895C42.6298 76.3134 42.885 76.5192 43.2288 76.7067C43.5777 76.8942 44.0256 77.1025 44.5725 77.3317C45.2027 77.5921 45.7366 77.8655 46.1741 78.152C46.6168 78.4384 46.9553 78.7822 47.1897 79.1832C47.4241 79.5791 47.5413 80.0765 47.5413 80.6754ZM53.0413 83.941C52.2236 83.941 51.5152 83.7822 50.9163 83.4645C50.3173 83.1468 49.8564 82.6598 49.5334 82.0035C49.2105 81.3473 49.0491 80.514 49.0491 79.5035C49.0491 78.4515 49.2262 77.5921 49.5803 76.9254C49.9345 76.2587 50.4241 75.7666 51.0491 75.4489C51.6793 75.1311 52.4006 74.9723 53.2131 74.9723C53.7288 74.9723 54.1949 75.0244 54.6116 75.1285C55.0334 75.2275 55.3902 75.3499 55.6819 75.4957L55.135 76.9645C54.8173 76.8343 54.4918 76.7249 54.1584 76.6364C53.8251 76.5478 53.5048 76.5035 53.1975 76.5035C52.6923 76.5035 52.2704 76.6155 51.9319 76.8395C51.5986 77.0634 51.3486 77.3968 51.1819 77.8395C51.0204 78.2822 50.9397 78.8317 50.9397 79.4879C50.9397 80.1233 51.023 80.6598 51.1897 81.0973C51.3564 81.5296 51.6038 81.8577 51.9319 82.0817C52.26 82.3004 52.6637 82.4098 53.1428 82.4098C53.6168 82.4098 54.0413 82.3525 54.4163 82.2379C54.7913 82.1233 55.1454 81.9749 55.4788 81.7926V83.3864C55.1506 83.5739 54.7991 83.7119 54.4241 83.8004C54.0491 83.8942 53.5881 83.941 53.0413 83.941ZM60.9006 74.9723C61.9944 74.9723 62.8199 75.2145 63.3772 75.6989C63.9397 76.1832 64.2209 76.9384 64.2209 77.9645V83.7848H62.9163L62.5647 82.5582H62.5022C62.2574 82.8707 62.0048 83.1285 61.7444 83.3317C61.484 83.5348 61.1819 83.6858 60.8381 83.7848C60.4996 83.889 60.0855 83.941 59.5959 83.941C59.0803 83.941 58.6194 83.8473 58.2131 83.6598C57.8069 83.4671 57.4866 83.1754 57.2522 82.7848C57.0178 82.3942 56.9006 81.8994 56.9006 81.3004C56.9006 80.4098 57.2314 79.7405 57.8928 79.2926C58.5595 78.8447 59.5647 78.5973 60.9084 78.5504L62.4084 78.4957V78.0426C62.4084 77.4436 62.2678 77.0166 61.9866 76.7614C61.7105 76.5061 61.3199 76.3785 60.8147 76.3785C60.3824 76.3785 59.9631 76.441 59.5569 76.566C59.1506 76.691 58.7548 76.8447 58.3694 77.027L57.7756 75.7301C58.1975 75.5061 58.6767 75.3239 59.2131 75.1832C59.7548 75.0426 60.3173 74.9723 60.9006 74.9723ZM62.4006 79.652L61.2834 79.691C60.3668 79.7223 59.7236 79.8785 59.3538 80.1598C58.984 80.441 58.7991 80.8265 58.7991 81.316C58.7991 81.7431 58.9267 82.0556 59.1819 82.2535C59.4371 82.4462 59.773 82.5426 60.1897 82.5426C60.8251 82.5426 61.3512 82.3629 61.7678 82.0035C62.1897 81.639 62.4006 81.1051 62.4006 80.402V79.652ZM71.2991 74.9723C72.273 74.9723 73.0308 75.2249 73.5725 75.7301C74.1194 76.2301 74.3928 77.0348 74.3928 78.1442V83.7848H72.5569V78.4879C72.5569 77.816 72.4189 77.3134 72.1428 76.9801C71.8668 76.6416 71.4397 76.4723 70.8616 76.4723C70.023 76.4723 69.4397 76.7301 69.1116 77.2457C68.7887 77.7614 68.6272 78.5087 68.6272 79.4879V83.7848H66.7913V75.1364H68.2209L68.4788 76.3082H68.5803C68.7678 76.0061 68.9996 75.7587 69.2756 75.566C69.5569 75.3681 69.8694 75.2197 70.2131 75.1207C70.5621 75.0218 70.9241 74.9723 71.2991 74.9723ZM91.4475 78.0582C91.4475 78.9489 91.3329 79.7614 91.1038 80.4957C90.8746 81.2301 90.5308 81.8577 90.0725 82.3785C89.6142 82.8994 89.0361 83.2926 88.3381 83.5582L91.0569 86.5035H88.5569L86.4084 83.9332C86.3564 83.9332 86.3043 83.9332 86.2522 83.9332C86.2053 83.9384 86.1584 83.941 86.1116 83.941C85.2001 83.941 84.4084 83.8004 83.7366 83.5192C83.0699 83.2379 82.5152 82.8369 82.0725 82.316C81.635 81.7952 81.3069 81.1728 81.0881 80.4489C80.8694 79.7249 80.76 78.9228 80.76 78.0426C80.76 76.8655 80.9527 75.8395 81.3381 74.9645C81.7288 74.0843 82.3199 73.402 83.1116 72.9176C83.9084 72.428 84.9137 72.1832 86.1272 72.1832C87.3147 72.1832 88.3017 72.4254 89.0881 72.9098C89.8746 73.3942 90.4631 74.0765 90.8538 74.9567C91.2496 75.8317 91.4475 76.8655 91.4475 78.0582ZM82.7288 78.0582C82.7288 78.9384 82.8486 79.7015 83.0881 80.3473C83.3277 80.9879 83.6949 81.4827 84.1897 81.8317C84.6897 82.1754 85.3303 82.3473 86.1116 82.3473C86.898 82.3473 87.5387 82.1754 88.0334 81.8317C88.5282 81.4827 88.8928 80.9879 89.1272 80.3473C89.3616 79.7015 89.4788 78.9384 89.4788 78.0582C89.4788 76.7197 89.2105 75.6728 88.6741 74.9176C88.1428 74.1572 87.2939 73.777 86.1272 73.777C85.3459 73.777 84.7027 73.9489 84.1975 74.2926C83.6975 74.6364 83.3277 75.1285 83.0881 75.7692C82.8486 76.4046 82.7288 77.1676 82.7288 78.0582ZM97.1116 72.3629C98.0959 72.3629 98.9084 72.4827 99.5491 72.7223C100.195 72.9619 100.674 73.3265 100.987 73.816C101.304 74.3056 101.463 74.928 101.463 75.6832C101.463 76.2457 101.359 76.7249 101.151 77.1207C100.942 77.5166 100.669 77.8447 100.33 78.1051C99.9918 78.3655 99.6298 78.5739 99.2444 78.7301L102.487 83.7848H100.369L97.6116 79.2067H95.7756V83.7848H93.9006V72.3629H97.1116ZM96.9866 73.9254H95.7756V77.6598H97.0725C97.9423 77.6598 98.5725 77.4983 98.9631 77.1754C99.359 76.8525 99.5569 76.3759 99.5569 75.7457C99.5569 75.0843 99.3459 74.6155 98.9241 74.3395C98.5074 74.0634 97.8616 73.9254 96.9866 73.9254ZM45.8147 95.7926C45.2678 95.7926 44.7782 95.8916 44.3459 96.0895C43.9189 96.2874 43.5569 96.5739 43.26 96.9489C42.9631 97.3186 42.7366 97.7692 42.5803 98.3004C42.4241 98.8265 42.3459 99.4202 42.3459 100.082C42.3459 100.967 42.4709 101.73 42.7209 102.371C42.9709 103.006 43.3512 103.496 43.8616 103.839C44.372 104.178 45.0178 104.347 45.7991 104.347C46.2834 104.347 46.7548 104.3 47.2131 104.207C47.6715 104.113 48.1454 103.985 48.635 103.824V105.418C48.1715 105.6 47.7027 105.733 47.2288 105.816C46.7548 105.899 46.2079 105.941 45.5881 105.941C44.4215 105.941 43.4527 105.699 42.6819 105.214C41.9163 104.73 41.3433 104.048 40.9631 103.168C40.5881 102.287 40.4006 101.256 40.4006 100.074C40.4006 99.2093 40.5204 98.4176 40.76 97.6989C40.9996 96.9801 41.3486 96.3603 41.8069 95.8395C42.2652 95.3134 42.8303 94.9098 43.5022 94.6285C44.1793 94.3421 44.9527 94.1989 45.8225 94.1989C46.3954 94.1989 46.9579 94.264 47.51 94.3942C48.0673 94.5192 48.5829 94.6989 49.0569 94.9332L48.4006 96.4801C48.0048 96.2926 47.5907 96.1311 47.1584 95.9957C46.7262 95.8603 46.2782 95.7926 45.8147 95.7926ZM58.5569 101.441C58.5569 102.16 58.4631 102.798 58.2756 103.355C58.0881 103.912 57.8147 104.384 57.4553 104.769C57.0959 105.149 56.6637 105.441 56.1584 105.644C55.6532 105.842 55.0829 105.941 54.4475 105.941C53.8538 105.941 53.3095 105.842 52.8147 105.644C52.3199 105.441 51.8902 105.149 51.5256 104.769C51.1663 104.384 50.8876 103.912 50.6897 103.355C50.4918 102.798 50.3928 102.16 50.3928 101.441C50.3928 100.488 50.5569 99.6806 50.885 99.0192C51.2183 98.3525 51.6923 97.8447 52.3069 97.4957C52.9215 97.1468 53.6532 96.9723 54.5022 96.9723C55.2991 96.9723 56.0022 97.1468 56.6116 97.4957C57.2209 97.8447 57.6975 98.3525 58.0413 99.0192C58.385 99.6858 58.5569 100.493 58.5569 101.441ZM52.2834 101.441C52.2834 102.071 52.359 102.61 52.51 103.058C52.6663 103.506 52.9058 103.85 53.2288 104.089C53.5517 104.324 53.9683 104.441 54.4788 104.441C54.9892 104.441 55.4058 104.324 55.7288 104.089C56.0517 103.85 56.2887 103.506 56.4397 103.058C56.5907 102.61 56.6663 102.071 56.6663 101.441C56.6663 100.811 56.5907 100.277 56.4397 99.8395C56.2887 99.3968 56.0517 99.0608 55.7288 98.8317C55.4058 98.5973 54.9866 98.4801 54.4709 98.4801C53.7105 98.4801 53.1558 98.7353 52.8069 99.2457C52.4579 99.7561 52.2834 100.488 52.2834 101.441ZM63.5725 105.941C62.5413 105.941 61.7131 105.566 61.0881 104.816C60.4683 104.061 60.1584 102.949 60.1584 101.48C60.1584 99.9957 60.4736 98.8733 61.1038 98.1129C61.7392 97.3525 62.5751 96.9723 63.6116 96.9723C64.0491 96.9723 64.4319 97.0322 64.76 97.152C65.0881 97.2666 65.3694 97.4228 65.6038 97.6207C65.8433 97.8186 66.0465 98.04 66.2131 98.2848H66.2991C66.273 98.1233 66.2418 97.8916 66.2053 97.5895C66.1741 97.2822 66.1584 96.9983 66.1584 96.7379V93.6285H68.0022V105.785H66.5647L66.2366 104.605H66.1584C66.0022 104.855 65.8043 105.082 65.5647 105.285C65.3303 105.483 65.0491 105.642 64.7209 105.761C64.398 105.881 64.0152 105.941 63.5725 105.941ZM64.0881 104.449C64.8746 104.449 65.4293 104.222 65.7522 103.769C66.0751 103.316 66.2418 102.636 66.2522 101.73V101.488C66.2522 100.519 66.0959 99.777 65.7834 99.2614C65.4709 98.7405 64.9006 98.4801 64.0725 98.4801C63.4111 98.4801 62.9058 98.7483 62.5569 99.2848C62.2131 99.816 62.0413 100.558 62.0413 101.511C62.0413 102.464 62.2131 103.194 62.5569 103.699C62.9058 104.199 63.4163 104.449 64.0881 104.449ZM74.0803 96.9723C74.8512 96.9723 75.5126 97.1311 76.0647 97.4489C76.6168 97.7666 77.0413 98.2171 77.3381 98.8004C77.635 99.3837 77.7834 100.082 77.7834 100.894V101.879H72.01C72.0308 102.717 72.2548 103.363 72.6819 103.816C73.1142 104.269 73.7183 104.496 74.4944 104.496C75.0465 104.496 75.5413 104.444 75.9788 104.339C76.4215 104.23 76.8772 104.071 77.3459 103.863V105.355C76.9137 105.558 76.4736 105.707 76.0256 105.8C75.5777 105.894 75.0413 105.941 74.4163 105.941C73.5673 105.941 72.8199 105.777 72.1741 105.449C71.5334 105.116 71.0308 104.621 70.6663 103.964C70.3069 103.308 70.1272 102.493 70.1272 101.519C70.1272 100.55 70.2913 99.7275 70.6194 99.0504C70.9475 98.3733 71.4084 97.8577 72.0022 97.5035C72.5959 97.1494 73.2887 96.9723 74.0803 96.9723ZM74.0803 98.3551C73.5022 98.3551 73.0334 98.5426 72.6741 98.9176C72.3199 99.2926 72.1116 99.8421 72.0491 100.566H75.9866C75.9814 100.134 75.9084 99.7509 75.7678 99.4176C75.6324 99.0843 75.4241 98.8239 75.1428 98.6364C74.8668 98.4489 74.5126 98.3551 74.0803 98.3551Z" fill="#0A0A0A"/>
<path d="M41.8777 219.684L44.2917 208.262H47.5417C48.9428 208.262 50.047 208.629 50.8542 209.364C51.6615 210.098 52.0652 211.171 52.0652 212.582C52.0652 213.468 51.9688 214.28 51.7761 215.02C51.5886 215.759 51.3126 216.418 50.948 216.996C50.5834 217.575 50.1355 218.064 49.6042 218.465C49.0782 218.861 48.4766 219.163 47.7996 219.371C47.1225 219.58 46.3751 219.684 45.5574 219.684H41.8777ZM45.4792 217.153H46.0183C46.3673 217.153 46.6928 217.085 46.9949 216.95C47.3022 216.814 47.5756 216.619 47.8152 216.364C48.06 216.103 48.2683 215.793 48.4402 215.434C48.6173 215.069 48.7501 214.661 48.8386 214.207C48.9324 213.754 48.9792 213.265 48.9792 212.739C48.9792 212.088 48.8386 211.595 48.5574 211.262C48.2761 210.924 47.8829 210.754 47.3777 210.754H46.823L45.4792 217.153ZM55.7449 219.84C55.2917 219.84 54.8725 219.733 54.4871 219.52C54.1069 219.306 53.8022 218.955 53.573 218.465C53.3438 217.97 53.2292 217.304 53.2292 216.465C53.2292 216.033 53.2787 215.559 53.3777 215.043C53.4819 214.528 53.6355 214.015 53.8386 213.504C54.047 212.989 54.3074 212.517 54.6199 212.09C54.9324 211.663 55.2996 211.322 55.7214 211.067C56.1485 210.806 56.6303 210.676 57.1667 210.676C57.5053 210.676 57.7996 210.728 58.0496 210.832C58.3048 210.937 58.5261 211.082 58.7136 211.27C58.9063 211.452 59.073 211.671 59.2136 211.926H59.2761L59.6902 210.832H62.1121L60.2371 219.684H57.823L57.9011 218.723H57.8386C57.6824 218.942 57.5079 219.134 57.3152 219.301C57.1225 219.468 56.8985 219.598 56.6433 219.692C56.3933 219.791 56.0938 219.84 55.7449 219.84ZM56.9871 217.411C57.2162 217.411 57.4272 217.306 57.6199 217.098C57.8126 216.884 57.9766 216.611 58.1121 216.278C58.2527 215.944 58.3542 215.588 58.4167 215.207C58.448 215.046 58.4714 214.884 58.4871 214.723C58.5027 214.556 58.5105 214.392 58.5105 214.231C58.5105 213.892 58.4558 213.621 58.3464 213.418C58.2423 213.21 58.0834 213.106 57.8699 213.106C57.7032 213.106 57.5417 213.168 57.3855 213.293C57.2345 213.413 57.0938 213.58 56.9636 213.793C56.8334 214.002 56.7188 214.244 56.6199 214.52C56.5261 214.791 56.4506 215.077 56.3933 215.379C56.3412 215.681 56.3152 215.986 56.3152 216.293C56.3152 216.653 56.3699 216.929 56.4792 217.121C56.5938 217.314 56.7631 217.411 56.9871 217.411ZM65.4949 219.84C64.724 219.84 64.1381 219.676 63.7371 219.348C63.3412 219.015 63.1433 218.47 63.1433 217.715C63.1433 217.502 63.1615 217.257 63.198 216.981C63.2397 216.705 63.2839 216.46 63.3308 216.246L63.9871 213.106H62.7839L63.1042 211.621L64.8074 210.934L65.8777 209.059H67.8933L67.5105 210.832H69.7605L69.2683 213.106H67.0105L66.3542 216.098C66.323 216.249 66.2944 216.403 66.2683 216.559C66.2423 216.71 66.2292 216.83 66.2292 216.918C66.2292 217.095 66.2735 217.223 66.3621 217.301C66.4558 217.374 66.5756 217.411 66.7214 217.411C66.9194 217.411 67.1433 217.377 67.3933 217.309C67.6433 217.236 67.8959 217.148 68.1511 217.043V219.317C67.823 219.478 67.4402 219.606 67.0027 219.7C66.5704 219.793 66.0678 219.84 65.4949 219.84ZM73.7605 219.84C73.0157 219.84 72.3829 219.7 71.8621 219.418C71.3412 219.137 70.9428 218.736 70.6667 218.215C70.3959 217.689 70.2605 217.064 70.2605 216.34C70.2605 215.616 70.3621 214.916 70.5652 214.239C70.7735 213.562 71.086 212.955 71.5027 212.418C71.9246 211.882 72.4532 211.457 73.0886 211.145C73.724 210.832 74.4714 210.676 75.3308 210.676C76.3256 210.676 77.1042 210.9 77.6667 211.348C78.2345 211.796 78.5183 212.392 78.5183 213.137C78.5183 213.627 78.4246 214.072 78.2371 214.473C78.0496 214.869 77.7605 215.21 77.3699 215.496C76.9845 215.783 76.4923 216.004 75.8933 216.161C75.2944 216.312 74.5834 216.387 73.7605 216.387H73.2996C73.2996 216.408 73.2996 216.429 73.2996 216.45C73.2996 216.465 73.2996 216.486 73.2996 216.512C73.2996 216.908 73.4063 217.2 73.6199 217.387C73.8334 217.575 74.1537 217.668 74.5808 217.668C75.0287 217.668 75.4532 217.601 75.8542 217.465C76.2553 217.33 76.685 217.142 77.1433 216.903V219.043C76.6694 219.283 76.1798 219.476 75.6746 219.621C75.1694 219.767 74.5313 219.84 73.7605 219.84ZM73.6042 214.496H73.8308C74.2839 214.496 74.6433 214.437 74.9089 214.317C75.1746 214.197 75.3647 214.046 75.4792 213.864C75.5938 213.681 75.6511 213.499 75.6511 213.317C75.6511 213.15 75.599 213.009 75.4949 212.895C75.3907 212.78 75.224 212.723 74.9949 212.723C74.7605 212.723 74.5444 212.814 74.3464 212.996C74.1485 213.179 73.9845 213.408 73.8542 213.684C73.724 213.955 73.6407 214.226 73.6042 214.496ZM81.7527 213.731C81.3412 213.731 81.0105 213.634 80.7605 213.442C80.5157 213.244 80.3933 212.942 80.3933 212.536C80.3933 212.114 80.4792 211.77 80.6511 211.504C80.823 211.233 81.0522 211.036 81.3386 210.911C81.6251 210.786 81.9376 210.723 82.2761 210.723C82.7032 210.723 83.047 210.822 83.3074 211.02C83.5678 211.213 83.698 211.515 83.698 211.926C83.698 212.619 83.5209 213.093 83.1667 213.348C82.8126 213.603 82.3412 213.731 81.7527 213.731ZM80.2292 219.879C79.823 219.879 79.4949 219.783 79.2449 219.59C78.9949 219.398 78.8699 219.098 78.8699 218.692C78.8699 218.056 79.06 217.595 79.4402 217.309C79.8204 217.017 80.2657 216.871 80.7761 216.871C81.1928 216.871 81.5313 216.97 81.7917 217.168C82.0522 217.361 82.1824 217.666 82.1824 218.082C82.1824 218.77 82.0053 219.241 81.6511 219.496C81.297 219.752 80.823 219.879 80.2292 219.879ZM45.4402 241.84C44.3933 241.84 43.5756 241.525 42.9871 240.895C42.4037 240.265 42.1121 239.317 42.1121 238.051C42.1121 237.405 42.1563 236.762 42.2449 236.121C42.3334 235.476 42.4688 234.856 42.6511 234.262C42.8334 233.668 43.0652 233.119 43.3464 232.614C43.6277 232.108 43.961 231.666 44.3464 231.286C44.7319 230.905 45.172 230.611 45.6667 230.403C46.1667 230.189 46.7214 230.082 47.3308 230.082C47.9402 230.082 48.4558 230.194 48.8777 230.418C49.3048 230.637 49.6485 230.934 49.9089 231.309C50.1694 231.684 50.3595 232.106 50.4792 232.575C50.599 233.038 50.6589 233.515 50.6589 234.004C50.6589 234.692 50.6121 235.364 50.5183 236.02C50.4246 236.671 50.2813 237.288 50.0886 237.871C49.8959 238.455 49.6563 238.989 49.3699 239.473C49.0834 239.957 48.7449 240.377 48.3542 240.731C47.9688 241.085 47.5339 241.358 47.0496 241.551C46.5652 241.744 46.0287 241.84 45.4402 241.84ZM45.7449 239.379C45.9272 239.379 46.099 239.299 46.2605 239.137C46.422 238.97 46.5704 238.746 46.7058 238.465C46.8464 238.179 46.9714 237.853 47.0808 237.489C47.1954 237.124 47.2917 236.739 47.3699 236.332C47.4532 235.926 47.5157 235.52 47.5574 235.114C47.599 234.702 47.6199 234.312 47.6199 233.942C47.6199 233.499 47.5704 233.158 47.4714 232.918C47.3725 232.674 47.2084 232.551 46.9792 232.551C46.823 232.551 46.6694 232.634 46.5183 232.801C46.3673 232.968 46.224 233.194 46.0886 233.481C45.9532 233.767 45.8282 234.098 45.7136 234.473C45.599 234.843 45.5001 235.236 45.4167 235.653C45.3386 236.064 45.2761 236.481 45.2292 236.903C45.1824 237.325 45.1589 237.728 45.1589 238.114C45.1589 238.546 45.198 238.866 45.2761 239.075C45.3595 239.278 45.5157 239.379 45.7449 239.379ZM53.3777 241.84C53.0496 241.84 52.7501 241.817 52.4792 241.77C52.2136 241.728 51.9636 241.674 51.7292 241.606V239.153C51.9897 239.257 52.2449 239.335 52.4949 239.387C52.7449 239.439 53.0183 239.457 53.3152 239.442C53.81 239.416 54.2449 239.343 54.6199 239.223C55.0001 239.098 55.3282 238.918 55.6042 238.684C55.8803 238.45 56.1095 238.158 56.2917 237.809C56.474 237.455 56.6173 237.041 56.7214 236.567H56.6589C56.5235 236.791 56.3542 237.007 56.1511 237.215C55.9532 237.424 55.7058 237.595 55.4089 237.731C55.1121 237.861 54.7449 237.926 54.3074 237.926C53.7761 237.926 53.3178 237.796 52.9324 237.536C52.5522 237.27 52.2605 236.9 52.0574 236.426C51.8542 235.952 51.7527 235.395 51.7527 234.754C51.7527 234.259 51.8074 233.783 51.9167 233.325C52.0261 232.866 52.1902 232.442 52.4089 232.051C52.6329 231.661 52.9167 231.319 53.2605 231.028C53.6042 230.736 54.0079 230.509 54.4714 230.348C54.9402 230.181 55.474 230.098 56.073 230.098C56.9428 230.098 57.6485 230.275 58.1902 230.629C58.7371 230.983 59.1381 231.473 59.3933 232.098C59.6537 232.723 59.7839 233.439 59.7839 234.246C59.7839 234.793 59.7423 235.345 59.6589 235.903C59.5808 236.46 59.4532 237.004 59.2761 237.536C59.1042 238.062 58.8777 238.562 58.5964 239.036C58.3204 239.509 57.9845 239.934 57.5886 240.309C57.3386 240.543 57.0652 240.757 56.7683 240.95C56.4714 241.137 56.1485 241.299 55.7996 241.434C55.4506 241.564 55.0756 241.663 54.6746 241.731C54.2735 241.804 53.8412 241.84 53.3777 241.84ZM55.5417 235.528C55.7032 235.528 55.8516 235.486 55.9871 235.403C56.1277 235.319 56.2527 235.205 56.3621 235.059C56.4714 234.908 56.56 234.739 56.6277 234.551C56.6746 234.416 56.7136 234.273 56.7449 234.121C56.7761 233.965 56.7917 233.804 56.7917 233.637C56.7917 233.424 56.7605 233.231 56.698 233.059C56.6407 232.887 56.5548 232.752 56.4402 232.653C56.3256 232.549 56.185 232.496 56.0183 232.496C55.8464 232.496 55.6876 232.549 55.5417 232.653C55.3959 232.752 55.2683 232.89 55.1589 233.067C55.0548 233.244 54.9714 233.447 54.9089 233.676C54.8516 233.905 54.823 234.148 54.823 234.403C54.823 234.778 54.8829 235.059 55.0027 235.246C55.1225 235.434 55.3022 235.528 55.5417 235.528ZM59.4792 241.84L66.0261 230.098H68.7136L62.1667 241.84H59.4792ZM71.4714 241.84C70.4246 241.84 69.6069 241.525 69.0183 240.895C68.435 240.265 68.1433 239.317 68.1433 238.051C68.1433 237.405 68.1876 236.762 68.2761 236.121C68.3647 235.476 68.5001 234.856 68.6824 234.262C68.8647 233.668 69.0964 233.119 69.3777 232.614C69.6589 232.108 69.9923 231.666 70.3777 231.286C70.7631 230.905 71.2032 230.611 71.698 230.403C72.198 230.189 72.7527 230.082 73.3621 230.082C73.9714 230.082 74.4871 230.194 74.9089 230.418C75.336 230.637 75.6798 230.934 75.9402 231.309C76.2006 231.684 76.3907 232.106 76.5105 232.575C76.6303 233.038 76.6902 233.515 76.6902 234.004C76.6902 234.692 76.6433 235.364 76.5496 236.02C76.4558 236.671 76.3126 237.288 76.1199 237.871C75.9272 238.455 75.6876 238.989 75.4011 239.473C75.1147 239.957 74.7761 240.377 74.3855 240.731C74.0001 241.085 73.5652 241.358 73.0808 241.551C72.5964 241.744 72.06 241.84 71.4714 241.84ZM71.7761 239.379C71.9584 239.379 72.1303 239.299 72.2917 239.137C72.4532 238.97 72.6016 238.746 72.7371 238.465C72.8777 238.179 73.0027 237.853 73.1121 237.489C73.2266 237.124 73.323 236.739 73.4011 236.332C73.4845 235.926 73.547 235.52 73.5886 235.114C73.6303 234.702 73.6511 234.312 73.6511 233.942C73.6511 233.499 73.6016 233.158 73.5027 232.918C73.4037 232.674 73.2397 232.551 73.0105 232.551C72.8542 232.551 72.7006 232.634 72.5496 232.801C72.3985 232.968 72.2553 233.194 72.1199 233.481C71.9845 233.767 71.8595 234.098 71.7449 234.473C71.6303 234.843 71.5313 235.236 71.448 235.653C71.3699 236.064 71.3074 236.481 71.2605 236.903C71.2136 237.325 71.1902 237.728 71.1902 238.114C71.1902 238.546 71.2292 238.866 71.3074 239.075C71.3907 239.278 71.547 239.379 71.7761 239.379ZM80.0496 241.84C79.4819 241.84 78.9246 241.788 78.3777 241.684C77.8308 241.575 77.3855 241.421 77.0417 241.223V238.629C77.5053 238.911 77.9845 239.111 78.4792 239.231C78.9792 239.351 79.4819 239.411 79.9871 239.411C80.2944 239.411 80.5782 239.384 80.8386 239.332C81.1042 239.28 81.3334 239.2 81.5261 239.09C81.7188 238.981 81.8673 238.838 81.9714 238.661C82.0808 238.478 82.1355 238.259 82.1355 238.004C82.1355 237.78 82.0808 237.593 81.9714 237.442C81.8621 237.286 81.6511 237.168 81.3386 237.09C81.0261 237.007 80.5652 236.965 79.9558 236.965H79.2996L79.7136 234.692H80.323C80.698 234.692 81.0339 234.663 81.3308 234.606C81.6277 234.543 81.8829 234.455 82.0964 234.34C82.31 234.22 82.4714 234.077 82.5808 233.911C82.6954 233.744 82.7527 233.551 82.7527 233.332C82.7527 233.15 82.6746 232.973 82.5183 232.801C82.3673 232.624 82.0938 232.536 81.698 232.536C81.349 232.536 81.0001 232.595 80.6511 232.715C80.3022 232.835 79.948 232.994 79.5886 233.192L78.3542 231.254C78.9115 230.9 79.4845 230.619 80.073 230.411C80.6615 230.202 81.3959 230.098 82.2761 230.098C82.9584 230.098 83.5574 230.207 84.073 230.426C84.5938 230.64 85.0001 230.947 85.2917 231.348C85.5834 231.749 85.7292 232.233 85.7292 232.801C85.7292 233.358 85.6147 233.838 85.3855 234.239C85.1563 234.634 84.8412 234.955 84.4402 235.2C84.0391 235.444 83.5782 235.621 83.0574 235.731V235.793C83.7657 235.929 84.2996 236.228 84.6589 236.692C85.0235 237.155 85.2058 237.7 85.2058 238.325C85.2058 238.944 85.0704 239.476 84.7996 239.918C84.5287 240.361 84.1537 240.726 83.6746 241.012C83.2006 241.293 82.6537 241.502 82.0339 241.637C81.4141 241.773 80.7527 241.84 80.0496 241.84ZM85.5105 241.84L92.0574 230.098H94.7449L88.198 241.84H85.5105ZM93.2371 241.684L93.6511 239.684L97.4246 236.278C97.8048 235.939 98.1199 235.629 98.3699 235.348C98.6199 235.062 98.8178 234.804 98.9636 234.575C99.1095 234.345 99.211 234.14 99.2683 233.957C99.3308 233.77 99.3621 233.603 99.3621 233.457C99.3621 233.202 99.2944 233.012 99.1589 232.887C99.0235 232.757 98.8516 232.692 98.6433 232.692C98.4194 232.692 98.1902 232.736 97.9558 232.825C97.7214 232.908 97.4792 233.036 97.2292 233.207C96.9845 233.379 96.724 233.59 96.448 233.84L94.9949 231.825C95.5522 231.299 96.1798 230.879 96.8777 230.567C97.5756 230.254 98.3569 230.098 99.2214 230.098C99.8516 230.098 100.404 230.215 100.878 230.45C101.357 230.679 101.729 231.009 101.995 231.442C102.266 231.869 102.401 232.382 102.401 232.981C102.401 233.476 102.313 233.955 102.135 234.418C101.958 234.877 101.651 235.366 101.214 235.887C100.781 236.403 100.175 236.996 99.3933 237.668L97.7917 239.043V239.137H101.62L101.089 241.684H93.2371ZM102.518 241.684L102.932 239.684L106.706 236.278C107.086 235.939 107.401 235.629 107.651 235.348C107.901 235.062 108.099 234.804 108.245 234.575C108.391 234.345 108.492 234.14 108.55 233.957C108.612 233.77 108.643 233.603 108.643 233.457C108.643 233.202 108.576 233.012 108.44 232.887C108.305 232.757 108.133 232.692 107.925 232.692C107.701 232.692 107.471 232.736 107.237 232.825C107.003 232.908 106.76 233.036 106.51 233.207C106.266 233.379 106.005 233.59 105.729 233.84L104.276 231.825C104.833 231.299 105.461 230.879 106.159 230.567C106.857 230.254 107.638 230.098 108.503 230.098C109.133 230.098 109.685 230.215 110.159 230.45C110.638 230.679 111.01 231.009 111.276 231.442C111.547 231.869 111.682 232.382 111.682 232.981C111.682 233.476 111.594 233.955 111.417 234.418C111.24 234.877 110.932 235.366 110.495 235.887C110.063 236.403 109.456 236.996 108.675 237.668L107.073 239.043V239.137H110.901L110.37 241.684H102.518Z" fill="#0A0A0A"/>
<path d="M43.1526 241.428L45.0042 232.529H42.5276L43.0667 230.006H51.0979L50.5432 232.529H48.0588L46.2073 241.428H43.1526ZM50.3167 241.428L52.1838 232.576H55.2229L53.3401 241.428H50.3167ZM54.0432 231.733C53.6161 231.733 53.2594 231.652 52.9729 231.49C52.6917 231.324 52.551 231.037 52.551 230.631C52.551 230.277 52.6213 229.98 52.762 229.74C52.9026 229.496 53.1031 229.311 53.3635 229.186C53.6292 229.061 53.9469 228.998 54.3167 228.998C54.7177 228.998 55.064 229.082 55.3557 229.248C55.6526 229.41 55.801 229.693 55.801 230.1C55.801 230.589 55.6578 230.985 55.3713 231.287C55.0849 231.584 54.6422 231.733 54.0432 231.733ZM55.5198 241.428L57.387 232.576H59.801L59.676 234.037H59.7385C59.9469 233.647 60.1708 233.334 60.4104 233.1C60.65 232.86 60.9234 232.688 61.2307 232.584C61.538 232.475 61.8948 232.42 62.301 232.42C62.9104 232.42 63.3792 232.561 63.7073 232.842C64.0406 233.118 64.275 233.516 64.4104 234.037H64.4729C64.6969 233.667 64.9443 233.365 65.2151 233.131C65.4859 232.891 65.7828 232.714 66.1057 232.6C66.4286 232.48 66.7802 232.42 67.1604 232.42C67.8896 232.42 68.4443 232.641 68.8245 233.084C69.2099 233.527 69.4026 234.175 69.4026 235.029C69.4026 235.269 69.387 235.527 69.3557 235.803C69.3297 236.074 69.288 236.35 69.2307 236.631L68.2542 241.428H65.2307L66.2385 236.498C66.2646 236.394 66.288 236.251 66.3088 236.068C66.3349 235.886 66.3479 235.683 66.3479 235.459C66.3479 235.251 66.2984 235.092 66.1995 234.983C66.1005 234.873 65.9677 234.818 65.801 234.818C65.6083 234.818 65.4338 234.868 65.2776 234.967C65.1265 235.066 64.9885 235.217 64.8635 235.42C64.7437 235.618 64.6344 235.865 64.5354 236.162C64.4364 236.454 64.3479 236.795 64.2698 237.186L63.4026 241.428H60.3792L61.4026 236.498C61.4286 236.378 61.4547 236.225 61.4807 236.037C61.5068 235.845 61.5198 235.683 61.5198 235.553C61.5198 235.292 61.4651 235.105 61.3557 234.99C61.2515 234.876 61.1187 234.818 60.9573 234.818C60.8114 234.818 60.6682 234.855 60.5276 234.928C60.3922 234.996 60.262 235.115 60.137 235.287C60.0172 235.459 59.9 235.696 59.7854 235.998C59.676 236.295 59.5693 236.67 59.4651 237.123L58.5432 241.428H55.5198ZM74.3088 241.584C73.564 241.584 72.9312 241.443 72.4104 241.162C71.8896 240.881 71.4911 240.48 71.2151 239.959C70.9443 239.433 70.8088 238.808 70.8088 238.084C70.8088 237.36 70.9104 236.66 71.1135 235.983C71.3219 235.305 71.6344 234.699 72.051 234.162C72.4729 233.626 73.0015 233.201 73.637 232.889C74.2724 232.576 75.0198 232.42 75.8792 232.42C76.8739 232.42 77.6526 232.644 78.2151 233.092C78.7828 233.54 79.0667 234.136 79.0667 234.881C79.0667 235.371 78.9729 235.816 78.7854 236.217C78.5979 236.613 78.3088 236.954 77.9182 237.24C77.5328 237.527 77.0406 237.748 76.4417 237.904C75.8427 238.055 75.1318 238.131 74.3088 238.131H73.8479C73.8479 238.152 73.8479 238.173 73.8479 238.193C73.8479 238.209 73.8479 238.23 73.8479 238.256C73.8479 238.652 73.9547 238.943 74.1682 239.131C74.3818 239.318 74.7021 239.412 75.1292 239.412C75.5771 239.412 76.0015 239.345 76.4026 239.209C76.8036 239.074 77.2333 238.886 77.6917 238.647V240.787C77.2177 241.027 76.7281 241.22 76.2229 241.365C75.7177 241.511 75.0797 241.584 74.3088 241.584ZM74.1526 236.24H74.3792C74.8323 236.24 75.1917 236.18 75.4573 236.061C75.7229 235.941 75.913 235.79 76.0276 235.608C76.1422 235.425 76.1995 235.243 76.1995 235.061C76.1995 234.894 76.1474 234.753 76.0432 234.639C75.939 234.524 75.7724 234.467 75.5432 234.467C75.3088 234.467 75.0927 234.558 74.8948 234.74C74.6969 234.923 74.5328 235.152 74.4026 235.428C74.2724 235.699 74.189 235.97 74.1526 236.24ZM82.301 235.475C81.8896 235.475 81.5588 235.378 81.3088 235.186C81.064 234.988 80.9417 234.686 80.9417 234.279C80.9417 233.858 81.0276 233.514 81.1995 233.248C81.3713 232.977 81.6005 232.779 81.887 232.654C82.1734 232.529 82.4859 232.467 82.8245 232.467C83.2515 232.467 83.5953 232.566 83.8557 232.764C84.1161 232.957 84.2463 233.259 84.2463 233.67C84.2463 234.363 84.0693 234.837 83.7151 235.092C83.3609 235.347 82.8896 235.475 82.301 235.475ZM80.7776 241.623C80.3713 241.623 80.0432 241.527 79.7932 241.334C79.5432 241.141 79.4182 240.842 79.4182 240.436C79.4182 239.8 79.6083 239.339 79.9885 239.053C80.3687 238.761 80.814 238.615 81.3245 238.615C81.7411 238.615 82.0797 238.714 82.3401 238.912C82.6005 239.105 82.7307 239.41 82.7307 239.826C82.7307 240.514 82.5536 240.985 82.1995 241.24C81.8453 241.496 81.3713 241.623 80.7776 241.623ZM92.301 241.584C91.2542 241.584 90.4364 241.269 89.8479 240.639C89.2646 240.009 88.9729 239.061 88.9729 237.795C88.9729 237.149 89.0172 236.506 89.1057 235.865C89.1943 235.22 89.3297 234.6 89.512 234.006C89.6943 233.412 89.926 232.863 90.2073 232.358C90.4885 231.852 90.8219 231.41 91.2073 231.029C91.5927 230.649 92.0328 230.355 92.5276 230.147C93.0276 229.933 93.5823 229.826 94.1917 229.826C94.801 229.826 95.3167 229.938 95.7385 230.162C96.1656 230.381 96.5094 230.678 96.7698 231.053C97.0302 231.428 97.2203 231.85 97.3401 232.318C97.4599 232.782 97.5198 233.259 97.5198 233.748C97.5198 234.436 97.4729 235.108 97.3792 235.764C97.2854 236.415 97.1422 237.032 96.9495 237.615C96.7568 238.199 96.5172 238.733 96.2307 239.217C95.9443 239.701 95.6057 240.121 95.2151 240.475C94.8297 240.829 94.3948 241.102 93.9104 241.295C93.426 241.488 92.8896 241.584 92.301 241.584ZM92.6057 239.123C92.788 239.123 92.9599 239.042 93.1213 238.881C93.2828 238.714 93.4312 238.49 93.5667 238.209C93.7073 237.923 93.8323 237.597 93.9417 237.233C94.0562 236.868 94.1526 236.483 94.2307 236.076C94.314 235.67 94.3765 235.264 94.4182 234.858C94.4599 234.446 94.4807 234.055 94.4807 233.686C94.4807 233.243 94.4312 232.902 94.3323 232.662C94.2333 232.417 94.0693 232.295 93.8401 232.295C93.6838 232.295 93.5302 232.378 93.3792 232.545C93.2281 232.712 93.0849 232.938 92.9495 233.225C92.814 233.511 92.689 233.842 92.5745 234.217C92.4599 234.587 92.3609 234.98 92.2776 235.397C92.1995 235.808 92.137 236.225 92.0901 236.647C92.0432 237.068 92.0198 237.472 92.0198 237.858C92.0198 238.29 92.0588 238.61 92.137 238.818C92.2203 239.022 92.3765 239.123 92.6057 239.123ZM97.3167 241.428L97.7307 239.428L101.504 236.022C101.884 235.683 102.199 235.373 102.449 235.092C102.699 234.805 102.897 234.548 103.043 234.318C103.189 234.089 103.291 233.884 103.348 233.701C103.41 233.514 103.442 233.347 103.442 233.201C103.442 232.946 103.374 232.756 103.239 232.631C103.103 232.501 102.931 232.436 102.723 232.436C102.499 232.436 102.27 232.48 102.035 232.568C101.801 232.652 101.559 232.779 101.309 232.951C101.064 233.123 100.804 233.334 100.528 233.584L99.0745 231.568C99.6318 231.042 100.259 230.623 100.957 230.311C101.655 229.998 102.436 229.842 103.301 229.842C103.931 229.842 104.483 229.959 104.957 230.193C105.436 230.423 105.809 230.753 106.074 231.186C106.345 231.613 106.481 232.126 106.481 232.725C106.481 233.22 106.392 233.699 106.215 234.162C106.038 234.621 105.731 235.11 105.293 235.631C104.861 236.147 104.254 236.74 103.473 237.412L101.871 238.787V238.881H105.699L105.168 241.428H97.3167ZM109.926 235.475C109.515 235.475 109.184 235.378 108.934 235.186C108.689 234.988 108.567 234.686 108.567 234.279C108.567 233.858 108.653 233.514 108.824 233.248C108.996 232.977 109.226 232.779 109.512 232.654C109.798 232.529 110.111 232.467 110.449 232.467C110.877 232.467 111.22 232.566 111.481 232.764C111.741 232.957 111.871 233.259 111.871 233.67C111.871 234.363 111.694 234.837 111.34 235.092C110.986 235.347 110.515 235.475 109.926 235.475ZM108.403 241.623C107.996 241.623 107.668 241.527 107.418 241.334C107.168 241.141 107.043 240.842 107.043 240.436C107.043 239.8 107.233 239.339 107.614 239.053C107.994 238.761 108.439 238.615 108.949 238.615C109.366 238.615 109.705 238.714 109.965 238.912C110.226 239.105 110.356 239.41 110.356 239.826C110.356 240.514 110.179 240.985 109.824 241.24C109.47 241.496 108.996 241.623 108.403 241.623ZM115.34 241.584C114.955 241.584 114.548 241.561 114.121 241.514C113.699 241.467 113.309 241.397 112.949 241.303C112.59 241.204 112.309 241.082 112.106 240.936V238.404C112.491 238.628 112.949 238.811 113.481 238.951C114.017 239.087 114.509 239.154 114.957 239.154C115.301 239.154 115.606 239.126 115.871 239.068C116.142 239.011 116.369 238.923 116.551 238.803C116.739 238.678 116.879 238.522 116.973 238.334C117.072 238.147 117.121 237.92 117.121 237.654C117.121 237.295 116.999 236.985 116.754 236.725C116.515 236.459 116.15 236.326 115.66 236.326C115.39 236.326 115.106 236.35 114.809 236.397C114.517 236.443 114.272 236.503 114.074 236.576L113.121 235.858L114.801 230.006H121.153L120.621 232.529H116.942L116.481 233.975C116.616 233.959 116.731 233.951 116.824 233.951C116.923 233.946 117.004 233.943 117.067 233.943C117.655 233.943 118.189 234.074 118.668 234.334C119.147 234.595 119.528 234.977 119.809 235.483C120.095 235.983 120.239 236.6 120.239 237.334C120.239 238.053 120.124 238.68 119.895 239.217C119.666 239.748 119.335 240.188 118.903 240.537C118.476 240.886 117.96 241.149 117.356 241.326C116.757 241.498 116.085 241.584 115.34 241.584ZM125.582 241.584C124.712 241.584 124.002 241.41 123.449 241.061C122.903 240.712 122.499 240.227 122.239 239.608C121.983 238.983 121.856 238.261 121.856 237.443C121.856 236.897 121.903 236.337 121.996 235.764C122.095 235.186 122.236 234.623 122.418 234.076C122.606 233.529 122.835 233.024 123.106 232.561C123.382 232.097 123.694 231.704 124.043 231.381C124.507 230.954 124.968 230.631 125.426 230.412C125.89 230.188 126.392 230.037 126.934 229.959C127.481 229.881 128.108 229.842 128.817 229.842C129.114 229.842 129.416 229.865 129.723 229.912C130.03 229.954 130.335 230.011 130.637 230.084L130.145 232.451C129.947 232.394 129.712 232.347 129.442 232.311C129.171 232.274 128.929 232.256 128.715 232.256C127.897 232.256 127.244 232.358 126.754 232.561C126.265 232.764 125.877 233.079 125.59 233.506C125.304 233.928 125.056 234.467 124.848 235.123H124.91C125.051 234.899 125.223 234.686 125.426 234.483C125.634 234.279 125.89 234.115 126.192 233.99C126.499 233.86 126.871 233.795 127.309 233.795C128.095 233.795 128.718 234.05 129.176 234.561C129.64 235.071 129.871 235.863 129.871 236.936C129.871 237.597 129.775 238.212 129.582 238.779C129.395 239.342 129.116 239.834 128.746 240.256C128.382 240.673 127.934 240.998 127.403 241.233C126.871 241.467 126.265 241.584 125.582 241.584ZM125.614 239.186C125.811 239.186 125.983 239.128 126.129 239.014C126.28 238.899 126.405 238.746 126.504 238.553C126.603 238.36 126.676 238.144 126.723 237.904C126.775 237.665 126.801 237.42 126.801 237.17C126.801 236.858 126.741 236.613 126.621 236.436C126.507 236.253 126.327 236.162 126.082 236.162C125.916 236.162 125.762 236.207 125.621 236.295C125.481 236.378 125.356 236.501 125.246 236.662C125.137 236.818 125.046 237.003 124.973 237.217C124.947 237.305 124.923 237.402 124.903 237.506C124.887 237.605 124.874 237.709 124.864 237.818C124.853 237.923 124.848 238.032 124.848 238.147C124.848 238.318 124.866 238.47 124.903 238.6C124.939 238.73 124.991 238.839 125.059 238.928C125.127 239.011 125.207 239.076 125.301 239.123C125.395 239.165 125.499 239.186 125.614 239.186ZM41.5667 263.428L43.9807 252.006H46.8948C47.9052 252.006 48.7151 252.157 49.3245 252.459C49.939 252.761 50.3844 253.173 50.6604 253.693C50.9417 254.209 51.0823 254.787 51.0823 255.428C51.0823 256.11 50.9599 256.714 50.7151 257.24C50.4755 257.761 50.1318 258.201 49.6838 258.561C49.2411 258.915 48.7125 259.183 48.0979 259.365C47.4885 259.548 46.814 259.639 46.0745 259.639H45.4026L44.6213 263.428H41.5667ZM45.9495 257.139H46.4417C46.7646 257.139 47.0432 257.068 47.2776 256.928C47.5172 256.787 47.7021 256.595 47.8323 256.35C47.9625 256.105 48.0276 255.829 48.0276 255.522C48.0276 255.261 47.9443 255.027 47.7776 254.818C47.6161 254.605 47.3479 254.498 46.9729 254.498H46.512L45.9495 257.139ZM51.5354 263.428L53.9495 252.006H57.9963V260.115H58.0588L61.7932 252.006H65.9026L63.4573 263.428H60.7151L61.6292 259.139C61.801 258.342 61.9521 257.688 62.0823 257.178C62.2125 256.667 62.3193 256.261 62.4026 255.959C62.4911 255.652 62.5536 255.41 62.5901 255.233H62.5276L58.762 263.428H55.8713V255.233H55.8088C55.7255 255.769 55.6448 256.279 55.5667 256.764C55.4885 257.243 55.413 257.688 55.3401 258.1C55.2724 258.511 55.2047 258.889 55.137 259.233L54.2542 263.428H51.5354Z" fill="#0A0A0A"/>
</g>
<path fill-rule="evenodd" clip-rule="evenodd" d="M49.1395 0H47.1955C46.7768 0.712752 46.0158 1.18933 45.1465 1.18933C44.2772 1.18933 43.5163 0.712752 43.0976 0H41.1535C40.7348 0.712752 39.9738 1.18933 39.1045 1.18933C38.2352 1.18933 37.4742 0.712752 37.0555 0H35.1116C34.6929 0.712752 33.9319 1.18933 33.0626 1.18933C32.1933 1.18933 31.4324 0.712752 31.0137 0H29.4154C29.4165 0.102684 29.4171 0.205494 29.4171 0.308428C29.4171 16.3927 16.2741 29.4502 0 29.6089V255.391C16.2741 255.55 29.4171 268.607 29.4171 284.692C29.4171 284.752 29.4169 284.813 29.4165 284.874L29.4154 285H31.027C31.4458 284.287 32.2066 283.811 33.0757 283.811C33.9448 283.811 34.7056 284.287 35.1244 285H37.0693C37.4881 284.287 38.249 283.811 39.118 283.811C39.9871 283.811 40.748 284.287 41.1668 285H43.1115C43.5303 284.287 44.2912 283.811 45.1602 283.811C46.0293 283.811 46.7902 284.287 47.209 285H49.1539C49.5727 284.287 50.3335 283.811 51.2026 283.811C52.0717 283.811 52.8325 284.287 53.2513 285H54.9592C55.3483 284.287 56.0551 283.811 56.8625 283.811C57.67 283.811 58.3768 284.287 58.7659 285H60.573C60.962 284.287 61.6689 283.811 62.4763 283.811C63.2837 283.811 63.9905 284.287 64.3796 285H66.1861C66.5752 284.287 67.282 283.811 68.0894 283.811C68.8968 283.811 69.6036 284.287 69.9927 285H71.7997C72.1888 284.287 72.8956 283.811 73.703 283.811C74.5104 283.811 75.2173 284.287 75.6063 285H77.4128C77.8019 284.287 78.5087 283.811 79.3161 283.811C80.1236 283.811 80.8304 284.287 81.2195 285H83.0265C83.4155 284.287 84.1224 283.811 84.9298 283.811C85.7372 283.811 86.444 284.287 86.8331 285H87.92C88.3387 284.287 89.0996 283.811 89.9687 283.811C90.8378 283.811 91.5986 284.287 92.0174 285H93.9622C94.381 284.287 95.1419 283.811 96.0109 283.811C96.88 283.811 97.6409 284.287 98.0597 285H100.004C100.423 284.287 101.184 283.811 102.053 283.811C102.922 283.811 103.683 284.287 104.102 285H106.047C106.466 284.287 107.226 283.811 108.096 283.811C108.965 283.811 109.725 284.287 110.144 285H112.089C112.508 284.287 113.268 283.811 114.138 283.811C115.007 283.811 115.767 284.287 116.186 285H118.131C118.55 284.287 119.311 283.811 120.18 283.811C121.049 283.811 121.81 284.287 122.229 285H124.273C124.273 284.95 124.272 284.899 124.272 284.849L124.272 284.788L124.272 284.692C124.272 268.509 137.576 255.39 153.989 255.39C154.695 255.39 155.396 255.414 156.09 255.462V29.5383C155.396 29.5861 154.695 29.6104 153.989 29.6104C137.576 29.6104 124.272 16.4914 124.272 0.308428C124.272 0.205494 124.272 0.102684 124.273 0H122.407C121.988 0.712752 121.227 1.18933 120.358 1.18933C119.489 1.18933 118.728 0.712752 118.309 0H116.365C115.946 0.712752 115.185 1.18933 114.316 1.18933C113.447 1.18933 112.686 0.712752 112.267 0H110.323C109.904 0.712752 109.143 1.18933 108.274 1.18933C107.405 1.18933 106.644 0.712752 106.225 0H104.281C103.862 0.712752 103.101 1.18933 102.232 1.18933C101.363 1.18933 100.602 0.712752 100.183 0H98.2391C97.8205 0.712781 97.0595 1.18938 96.1902 1.18938C95.3208 1.18938 94.5598 0.712781 94.1412 0H91.7561C91.3151 0.712752 90.5136 1.18933 89.598 1.18933C88.6825 1.18933 87.881 0.712752 87.44 0H85.3926C84.9517 0.712752 84.1502 1.18933 83.2346 1.18933C82.319 1.18933 81.5176 0.712752 81.0766 0H79.0292C78.5882 0.712752 77.7868 1.18933 76.8712 1.18933C75.9556 1.18933 75.1541 0.712752 74.7131 0H72.6658C72.2248 0.712752 71.4233 1.18933 70.5077 1.18933C69.5922 1.18933 68.7907 0.712752 68.3497 0H66.3022C65.8612 0.712752 65.0597 1.18933 64.1441 1.18933C63.2286 1.18933 62.4271 0.712752 61.9861 0H59.9384C59.4975 0.712781 58.696 1.18938 57.7804 1.18938C56.8648 1.18938 56.0633 0.712781 55.6223 0H53.2374C52.8187 0.712752 52.0577 1.18933 51.1884 1.18933C50.3191 1.18933 49.5581 0.712752 49.1395 0Z" fill="#00C2CB"/>
<path d="M5.58838 38.4967V246.503" stroke="#0A0A0A"/>
<path d="M150.882 40.3594V248.366" stroke="#0A0A0A"/>
<defs>
<filter id="filter0_d_749_104" x="32.5061" y="33.0829" width="102.131" height="238.345" filterUnits="userSpaceOnUse" color-interpolation-filters="sRGB">
<feFlood flood-opacity="0" result="BackgroundImageFix"/>
<feColorMatrix in="SourceAlpha" type="matrix" values="0 0 0 0 0 0 0 0 0 0 0 0 0 0 0 0 0 0 127 0" result="hardAlpha"/>
<feOffset dy="4"/>
<feGaussianBlur stdDeviation="2"/>
<feComposite in2="hardAlpha" operator="out"/>
<feColorMatrix type="matrix" values="0 0 0 0 0 0 0 0 0 0 0 0 0 0 0 0 0 0 0.25 0"/>
<feBlend mode="normal" in2="BackgroundImageFix" result="effect1_dropShadow_749_104"/>
<feBlend mode="normal" in="SourceGraphic" in2="effect1_dropShadow_749_104" result="shape"/>
</filter>
</defs>
</svg>
